<svg xmlns="http://www.w3.org/2000/svg" xmlns:xlink="http://www.w3.org/1999/xlink" width="500" zoomAndPan="magnify" viewBox="0 0 375 93.749996" height="125" preserveAspectRatio="xMidYMid meet" version="1.0"><defs><g/><clipPath id="4132f80568"><path d="M 9.847656 15.527344 L 66.695312 15.527344 L 66.695312 72.375 L 9.847656 72.375 Z M 9.847656 15.527344 " clip-rule="nonzero"/></clipPath><clipPath id="ede2bf63f0"><path d="M 161 9.351562 L 164 9.351562 L 164 14 L 161 14 Z M 161 9.351562 " clip-rule="nonzero"/></clipPath><clipPath id="b6d25bc668"><path d="M 176 20 L 178.8125 20 L 178.8125 22 L 176 22 Z M 176 20 " clip-rule="nonzero"/></clipPath><clipPath id="8d5950d9fa"><path d="M 141.410156 21 L 145 21 L 145 23 L 141.410156 23 Z M 141.410156 21 " clip-rule="nonzero"/></clipPath><clipPath id="f57c875003"><path d="M 175 28 L 178.8125 28 L 178.8125 31 L 175 31 Z M 175 28 " clip-rule="nonzero"/></clipPath><clipPath id="5b4fbda59e"><path d="M 141.410156 29 L 146 29 L 146 31 L 141.410156 31 Z M 141.410156 29 " clip-rule="nonzero"/></clipPath><clipPath id="8a700ec2a4"><path d="M 157 43 L 160 43 L 160 46.75 L 157 46.75 Z M 157 43 " clip-rule="nonzero"/></clipPath></defs><g clip-path="url(#4132f80568)"><path fill="#ffffff" d="M 9.847656 43.953125 C 9.847656 28.253906 22.574219 15.527344 38.273438 15.527344 C 53.972656 15.527344 66.695312 28.253906 66.695312 43.953125 C 66.695312 59.648438 53.972656 72.375 38.273438 72.375 C 22.574219 72.375 9.847656 59.648438 9.847656 43.953125 " fill-opacity="1" fill-rule="nonzero"/></g><path fill="#000000" d="M 30.75 33.921875 C 30.453125 33.921875 30.214844 34.160156 30.214844 34.453125 C 30.214844 34.746094 30.453125 34.984375 30.75 34.984375 C 31.042969 34.984375 31.28125 34.746094 31.28125 34.453125 C 31.28125 34.160156 31.042969 33.921875 30.75 33.921875 " fill-opacity="1" fill-rule="nonzero"/><path fill="#000000" d="M 45.796875 37.476562 C 44.128906 37.476562 42.769531 36.121094 42.769531 34.453125 C 42.769531 32.785156 44.128906 31.429688 45.796875 31.429688 C 47.464844 31.429688 48.824219 32.785156 48.824219 34.453125 C 48.824219 36.121094 47.464844 37.476562 45.796875 37.476562 Z M 38.273438 54.6875 C 37.367188 54.6875 36.65625 53.75 36.65625 52.554688 C 36.65625 51.355469 37.367188 50.417969 38.273438 50.417969 C 39.179688 50.417969 39.890625 51.355469 39.890625 52.554688 C 39.890625 53.75 39.179688 54.6875 38.273438 54.6875 Z M 37.941406 41.589844 C 37.941406 41.40625 38.089844 41.257812 38.273438 41.257812 C 38.457031 41.257812 38.605469 41.40625 38.605469 41.589844 L 38.605469 48.828125 C 38.605469 49.011719 38.457031 49.160156 38.273438 49.160156 C 38.089844 49.160156 37.941406 49.011719 37.941406 48.828125 Z M 30.75 37.476562 C 29.078125 37.476562 27.722656 36.121094 27.722656 34.453125 C 27.722656 32.785156 29.078125 31.429688 30.75 31.429688 C 32.417969 31.429688 33.773438 32.785156 33.773438 34.453125 C 33.773438 36.121094 32.417969 37.476562 30.75 37.476562 Z M 45.414062 27.648438 C 41.660156 27.648438 38.605469 30.703125 38.605469 34.453125 C 38.605469 34.636719 38.457031 34.785156 38.273438 34.785156 C 38.089844 34.785156 37.941406 34.636719 37.941406 34.453125 C 37.941406 30.703125 34.886719 27.648438 31.132812 27.648438 C 27.378906 27.648438 24.324219 30.703125 24.324219 34.453125 C 24.324219 34.613281 24.332031 34.773438 24.34375 34.929688 C 24.34375 34.96875 24.347656 35.007812 24.351562 35.050781 C 24.363281 35.199219 24.382812 35.351562 24.40625 35.5 C 24.410156 35.53125 24.417969 35.5625 24.421875 35.597656 C 24.441406 35.714844 24.464844 35.835938 24.492188 35.953125 C 24.503906 36.003906 24.515625 36.054688 24.527344 36.105469 C 24.5625 36.238281 24.597656 36.371094 24.640625 36.5 C 24.65625 36.554688 24.675781 36.605469 24.691406 36.660156 C 24.726562 36.753906 24.761719 36.847656 24.796875 36.941406 C 24.816406 36.992188 24.835938 37.042969 24.859375 37.09375 C 24.910156 37.21875 24.96875 37.339844 25.027344 37.460938 C 25.050781 37.511719 25.078125 37.5625 25.105469 37.613281 C 25.167969 37.730469 25.230469 37.84375 25.296875 37.953125 C 25.320312 37.996094 25.347656 38.035156 25.375 38.078125 C 25.4375 38.175781 25.5 38.273438 25.570312 38.367188 C 26.800781 40.113281 28.835938 41.257812 31.132812 41.257812 C 32.484375 41.257812 33.792969 40.863281 34.914062 40.113281 C 35.066406 40.011719 35.273438 40.050781 35.375 40.203125 C 35.476562 40.355469 35.4375 40.5625 35.285156 40.664062 C 34.054688 41.488281 32.617188 41.925781 31.132812 41.925781 C 28.988281 41.925781 27.050781 41.015625 25.6875 39.5625 C 25.6875 41.242188 26.195312 42.855469 27.152344 44.238281 L 28.128906 45.648438 C 29.167969 47.140625 29.714844 48.890625 29.714844 50.710938 C 29.714844 53.0625 29.050781 55.355469 27.792969 57.34375 L 25.957031 60.253906 L 37.941406 60.253906 L 37.941406 56.277344 C 37.941406 56.09375 38.089844 55.945312 38.273438 55.945312 C 38.457031 55.945312 38.605469 56.09375 38.605469 56.277344 L 38.605469 60.253906 L 50.589844 60.253906 L 48.75 57.34375 C 47.496094 55.355469 46.832031 53.0625 46.832031 50.710938 C 46.832031 48.894531 47.378906 47.140625 48.414062 45.648438 L 49.394531 44.238281 C 50.351562 42.855469 50.859375 41.242188 50.859375 39.5625 C 49.496094 41.015625 47.558594 41.925781 45.414062 41.925781 C 43.925781 41.925781 42.492188 41.488281 41.261719 40.664062 C 41.109375 40.5625 41.066406 40.355469 41.167969 40.203125 C 41.273438 40.050781 41.476562 40.011719 41.632812 40.113281 C 42.75 40.863281 44.058594 41.257812 45.414062 41.257812 C 47.710938 41.257812 49.746094 40.113281 50.976562 38.367188 C 51.042969 38.273438 51.109375 38.175781 51.171875 38.078125 C 51.199219 38.035156 51.226562 37.996094 51.25 37.953125 C 51.316406 37.839844 51.378906 37.730469 51.441406 37.613281 C 51.46875 37.5625 51.492188 37.511719 51.519531 37.460938 C 51.578125 37.339844 51.636719 37.21875 51.6875 37.09375 C 51.710938 37.042969 51.726562 36.992188 51.75 36.941406 C 51.785156 36.847656 51.820312 36.753906 51.851562 36.660156 C 51.871094 36.605469 51.890625 36.554688 51.90625 36.5 C 51.949219 36.371094 51.984375 36.238281 52.019531 36.105469 C 52.03125 36.054688 52.042969 36.003906 52.054688 35.953125 C 52.078125 35.835938 52.105469 35.714844 52.125 35.597656 C 52.128906 35.5625 52.136719 35.53125 52.140625 35.5 C 52.164062 35.351562 52.179688 35.199219 52.195312 35.050781 C 52.199219 35.007812 52.199219 34.96875 52.203125 34.929688 C 52.214844 34.773438 52.222656 34.613281 52.222656 34.453125 C 52.222656 30.703125 49.167969 27.648438 45.414062 27.648438 " fill-opacity="1" fill-rule="nonzero"/><path fill="#000000" d="M 45.796875 33.921875 C 45.503906 33.921875 45.265625 34.160156 45.265625 34.453125 C 45.265625 34.746094 45.503906 34.984375 45.796875 34.984375 C 46.089844 34.984375 46.328125 34.746094 46.328125 34.453125 C 46.328125 34.160156 46.089844 33.921875 45.796875 33.921875 " fill-opacity="1" fill-rule="nonzero"/><path fill="#000000" d="M 52.265625 24.730469 C 51.453125 24.730469 50.792969 25.394531 50.792969 26.203125 C 50.792969 27.015625 51.453125 27.675781 52.265625 27.675781 C 53.074219 27.675781 53.738281 27.015625 53.738281 26.203125 C 53.738281 25.394531 53.074219 24.730469 52.265625 24.730469 Z M 52.265625 28.414062 C 51.046875 28.414062 50.054688 27.421875 50.054688 26.203125 C 50.054688 24.988281 51.046875 23.996094 52.265625 23.996094 C 53.480469 23.996094 54.472656 24.988281 54.472656 26.203125 C 54.472656 27.421875 53.480469 28.414062 52.265625 28.414062 " fill-opacity="1" fill-rule="nonzero"/><path fill="#000000" d="M 27.816406 64.203125 C 27.289062 64.203125 26.859375 64.632812 26.859375 65.160156 C 26.859375 65.6875 27.289062 66.117188 27.816406 66.117188 C 28.34375 66.117188 28.773438 65.6875 28.773438 65.160156 C 28.773438 64.632812 28.34375 64.203125 27.816406 64.203125 Z M 27.816406 66.851562 C 26.882812 66.851562 26.121094 66.09375 26.121094 65.160156 C 26.121094 64.226562 26.882812 63.464844 27.816406 63.464844 C 28.75 63.464844 29.511719 64.226562 29.511719 65.160156 C 29.511719 66.09375 28.75 66.851562 27.816406 66.851562 " fill-opacity="1" fill-rule="nonzero"/><path fill="#000000" d="M 31.617188 23.066406 C 31.523438 23.066406 31.429688 23.03125 31.355469 22.960938 C 31.214844 22.816406 31.214844 22.582031 31.355469 22.4375 L 34.0625 19.730469 C 34.207031 19.585938 34.441406 19.585938 34.585938 19.730469 C 34.730469 19.875 34.730469 20.109375 34.585938 20.25 L 31.878906 22.960938 C 31.804688 23.03125 31.710938 23.066406 31.617188 23.066406 " fill-opacity="1" fill-rule="nonzero"/><path fill="#000000" d="M 34.324219 23.066406 C 34.230469 23.066406 34.136719 23.03125 34.0625 22.960938 L 31.355469 20.25 C 31.214844 20.109375 31.214844 19.875 31.355469 19.730469 C 31.5 19.585938 31.734375 19.585938 31.878906 19.730469 L 34.585938 22.4375 C 34.730469 22.582031 34.730469 22.816406 34.585938 22.960938 C 34.511719 23.03125 34.417969 23.066406 34.324219 23.066406 " fill-opacity="1" fill-rule="nonzero"/><path fill="#000000" d="M 14.414062 50.800781 C 14.320312 50.800781 14.226562 50.765625 14.152344 50.691406 C 14.011719 50.546875 14.011719 50.316406 14.152344 50.171875 L 15.921875 48.402344 C 16.066406 48.261719 16.296875 48.261719 16.441406 48.402344 C 16.585938 48.546875 16.585938 48.78125 16.441406 48.925781 L 14.675781 50.691406 C 14.601562 50.765625 14.507812 50.800781 14.414062 50.800781 " fill-opacity="1" fill-rule="nonzero"/><path fill="#000000" d="M 16.179688 50.800781 C 16.085938 50.800781 15.992188 50.765625 15.921875 50.691406 L 14.152344 48.925781 C 14.011719 48.78125 14.011719 48.546875 14.152344 48.402344 C 14.296875 48.261719 14.53125 48.261719 14.675781 48.402344 L 16.441406 50.171875 C 16.585938 50.316406 16.585938 50.546875 16.441406 50.691406 C 16.371094 50.765625 16.277344 50.800781 16.179688 50.800781 " fill-opacity="1" fill-rule="nonzero"/><path fill="#000000" d="M 60.734375 42.699219 C 60.636719 42.699219 60.542969 42.664062 60.472656 42.59375 C 60.328125 42.449219 60.328125 42.214844 60.472656 42.070312 L 62.238281 40.304688 C 62.382812 40.160156 62.617188 40.160156 62.761719 40.304688 C 62.902344 40.449219 62.902344 40.679688 62.761719 40.824219 L 60.992188 42.59375 C 60.921875 42.664062 60.828125 42.699219 60.734375 42.699219 " fill-opacity="1" fill-rule="nonzero"/><path fill="#000000" d="M 62.5 42.699219 C 62.40625 42.699219 62.3125 42.664062 62.238281 42.59375 L 60.472656 40.824219 C 60.328125 40.679688 60.328125 40.449219 60.472656 40.304688 C 60.617188 40.160156 60.847656 40.160156 60.992188 40.304688 L 62.761719 42.070312 C 62.902344 42.214844 62.902344 42.449219 62.761719 42.59375 C 62.6875 42.664062 62.59375 42.699219 62.5 42.699219 " fill-opacity="1" fill-rule="nonzero"/><g fill="#000000" fill-opacity="1"><g transform="translate(66.368349, 51.635652)"><g><path d="M 7.8125 -1.875 C 7.746094 -1.09375 7.230469 -0.601562 6.5625 -0.601562 C 5.960938 -0.601562 5.3125 -1.027344 5.3125 -2.097656 L 5.3125 -14.171875 L 7.835938 -14.171875 L 7.835938 -14.640625 L 5.3125 -14.640625 L 5.3125 -20.535156 L 2.65625 -20.535156 L 2.65625 -14.640625 L 1.117188 -14.640625 L 1.117188 -14.171875 L 2.65625 -14.171875 L 2.65625 -3.660156 C 2.65625 -2.699219 2.746094 -1.898438 3.035156 -1.292969 C 3.550781 -0.246094 4.464844 0.222656 5.871094 0.222656 C 7.277344 0.222656 8.238281 -0.691406 8.304688 -1.875 Z M 7.8125 -1.875 "/></g></g></g><g fill="#000000" fill-opacity="1"><g transform="translate(75.340552, 51.635652)"><g><path d="M 5.425781 -14.640625 L 1.226562 -14.640625 L 1.226562 -14.171875 L 2.769531 -14.171875 L 2.769531 -0.46875 L 1.226562 -0.46875 L 1.226562 0 L 7.097656 0 L 7.097656 -0.46875 L 5.425781 -0.46875 L 5.425781 -12.253906 C 6.117188 -13.503906 7.277344 -14.351562 8.191406 -14.351562 C 8.414062 -14.351562 8.570312 -14.308594 8.617188 -14.285156 C 7.902344 -14.195312 7.367188 -13.546875 7.367188 -12.789062 C 7.367188 -11.898438 8.035156 -11.226562 8.929688 -11.226562 C 9.84375 -11.226562 10.511719 -11.941406 10.511719 -12.878906 C 10.511719 -13.996094 9.597656 -14.84375 8.347656 -14.84375 C 7.1875 -14.84375 6.050781 -14.039062 5.425781 -13.035156 Z M 5.425781 -14.640625 "/></g></g></g><g fill="#000000" fill-opacity="1"><g transform="translate(85.852763, 51.635652)"><g><path d="M 11.027344 -14.640625 L 11.027344 -14.171875 L 12.566406 -14.171875 L 12.566406 -4.820312 C 12.566406 -1.964844 11.070312 -0.269531 8.996094 -0.269531 C 6.917969 -0.269531 5.425781 -1.964844 5.425781 -4.820312 L 5.425781 -14.171875 L 6.917969 -14.171875 L 6.917969 -14.640625 L 1.226562 -14.640625 L 1.226562 -14.171875 L 2.769531 -14.171875 L 2.769531 -6.5625 C 2.769531 -5.46875 2.945312 -4.398438 3.257812 -3.59375 C 4.175781 -1.339844 6.449219 0.199219 8.996094 0.199219 C 11.539062 0.199219 13.816406 -1.339844 14.730469 -3.59375 C 15.042969 -4.398438 15.222656 -5.46875 15.222656 -6.5625 L 15.222656 -14.171875 L 16.71875 -14.171875 L 16.71875 -14.640625 Z M 11.027344 -14.640625 "/></g></g></g><g fill="#000000" fill-opacity="1"><g transform="translate(103.797169, 51.635652)"><g><path d="M 13.996094 -6.988281 L 13.996094 -8.011719 C 13.996094 -10.691406 13.28125 -12.054688 11.917969 -13.304688 C 10.847656 -14.285156 9.21875 -14.84375 7.789062 -14.84375 C 4.105469 -14.84375 1.5625 -12.074219 1.5625 -8.28125 L 1.5625 -6.496094 C 1.5625 -4.398438 2.03125 -3.011719 3.191406 -1.742188 C 4.285156 -0.558594 5.9375 0.222656 7.925781 0.222656 C 10.535156 0.222656 12.542969 -1.160156 13.75 -3.792969 L 13.324219 -3.996094 C 12.054688 -1.40625 10.335938 -0.246094 7.992188 -0.246094 C 6.25 -0.246094 5.15625 -1.070312 4.644531 -2.367188 C 4.261719 -3.324219 4.21875 -4.554688 4.21875 -6.207031 L 4.21875 -6.988281 Z M 11.359375 -7.457031 L 4.21875 -7.457031 L 4.21875 -9.195312 C 4.21875 -11.339844 4.574219 -12.433594 5.269531 -13.214844 C 5.914062 -13.949219 6.742188 -14.375 7.789062 -14.375 C 8.929688 -14.375 9.867188 -13.859375 10.445312 -13.058594 C 11.136719 -12.121094 11.359375 -11.117188 11.359375 -9.019531 Z M 11.359375 -7.457031 "/></g></g></g><g fill="#000000" fill-opacity="1"><g transform="translate(118.907063, 51.635652)"><g><path d="M 20.9375 -14.171875 L 20.9375 -14.640625 L 17.902344 -14.640625 L 17.902344 -14.171875 L 19.085938 -14.171875 L 13.90625 -3.414062 L 11.695312 -8.324219 L 14.53125 -14.171875 L 15.714844 -14.171875 L 15.714844 -14.640625 L 12.632812 -14.640625 L 12.632812 -14.171875 L 13.972656 -14.171875 L 11.429688 -8.90625 L 9.039062 -14.171875 L 10.601562 -14.171875 L 10.601562 -14.640625 L 5.402344 -14.640625 L 5.402344 -14.171875 L 6.273438 -14.171875 L 10.023438 -5.960938 L 8.792969 -3.414062 L 3.90625 -14.171875 L 4.910156 -14.171875 L 4.910156 -14.640625 L 0 -14.640625 L 0 -14.171875 L 1.136719 -14.171875 L 7.65625 0.113281 L 10.289062 -5.355469 L 12.789062 0.0898438 L 19.710938 -14.171875 Z M 20.9375 -14.171875 "/></g></g></g><g fill="#000000" fill-opacity="1"><g transform="translate(139.172626, 51.635652)"><g><path d="M 13.996094 -6.988281 L 13.996094 -8.011719 C 13.996094 -10.691406 13.28125 -12.054688 11.917969 -13.304688 C 10.847656 -14.285156 9.21875 -14.84375 7.789062 -14.84375 C 4.105469 -14.84375 1.5625 -12.074219 1.5625 -8.28125 L 1.5625 -6.496094 C 1.5625 -4.398438 2.03125 -3.011719 3.191406 -1.742188 C 4.285156 -0.558594 5.9375 0.222656 7.925781 0.222656 C 10.535156 0.222656 12.542969 -1.160156 13.75 -3.792969 L 13.324219 -3.996094 C 12.054688 -1.40625 10.335938 -0.246094 7.992188 -0.246094 C 6.25 -0.246094 5.15625 -1.070312 4.644531 -2.367188 C 4.261719 -3.324219 4.21875 -4.554688 4.21875 -6.207031 L 4.21875 -6.988281 Z M 11.359375 -7.457031 L 4.21875 -7.457031 L 4.21875 -9.195312 C 4.21875 -11.339844 4.574219 -12.433594 5.269531 -13.214844 C 5.914062 -13.949219 6.742188 -14.375 7.789062 -14.375 C 8.929688 -14.375 9.867188 -13.859375 10.445312 -13.058594 C 11.136719 -12.121094 11.359375 -11.117188 11.359375 -9.019531 Z M 11.359375 -7.457031 "/></g></g></g><g fill="#000000" fill-opacity="1"><g transform="translate(154.28252, 51.635652)"><g><path d="M 5.648438 -18.324219 C 5.648438 -19.105469 5 -19.753906 4.21875 -19.753906 C 3.4375 -19.753906 2.789062 -19.105469 2.789062 -18.324219 C 2.789062 -17.542969 3.4375 -16.898438 4.21875 -16.898438 C 5 -16.898438 5.648438 -17.542969 5.648438 -18.324219 Z M 7.144531 0 L 7.144531 -0.46875 L 5.648438 -0.46875 L 5.648438 -14.640625 L 1.449219 -14.640625 L 1.449219 -14.171875 L 2.992188 -14.171875 L 2.992188 -0.46875 L 1.449219 -0.46875 L 1.449219 0 Z M 7.144531 0 "/></g></g></g><g fill="#000000" fill-opacity="1"><g transform="translate(162.763705, 51.635652)"><g><path d="M 11.359375 -2.855469 C 10.691406 -1.207031 9.21875 -0.246094 7.769531 -0.246094 C 6.496094 -0.246094 5.601562 -0.9375 5.132812 -1.5625 C 4.242188 -2.769531 4.21875 -4.0625 4.21875 -5.738281 L 4.21875 -9.195312 C 4.21875 -11.339844 4.574219 -12.433594 5.269531 -13.214844 C 5.914062 -13.949219 6.742188 -14.375 7.789062 -14.375 C 8.929688 -14.375 9.867188 -13.859375 10.445312 -13.058594 C 11.136719 -12.121094 11.359375 -11.117188 11.359375 -9.019531 Z M 14.015625 -8.058594 C 14.015625 -10.199219 13.546875 -11.585938 12.320312 -12.921875 C 11.183594 -14.152344 9.441406 -14.84375 7.789062 -14.84375 C 5.089844 -14.84375 2.65625 -13.125 1.898438 -10.625 C 1.628906 -9.777344 1.5625 -9.085938 1.5625 -8.125 L 1.5625 -6.496094 C 1.5625 -4.554688 2.097656 -3.011719 3.167969 -1.808594 C 4.242188 -0.601562 5.914062 0.222656 7.65625 0.222656 C 9.242188 0.222656 10.691406 -0.667969 11.382812 -1.851562 L 11.382812 1.003906 C 11.382812 2.542969 11.316406 2.992188 11.046875 3.636719 C 10.804688 4.21875 10.421875 4.710938 9.953125 5.042969 C 9.398438 5.445312 8.550781 5.691406 7.789062 5.691406 C 6.292969 5.691406 5.042969 4.933594 4.554688 3.707031 C 4.820312 3.929688 5.15625 4.019531 5.46875 4.019531 C 6.339844 4.019531 6.964844 3.414062 6.964844 2.523438 C 6.964844 1.675781 6.273438 1.003906 5.445312 1.003906 C 4.53125 1.003906 3.839844 1.785156 3.839844 2.789062 C 3.839844 4.6875 5.582031 6.136719 7.878906 6.136719 C 10.558594 6.136719 13.101562 4.21875 13.703125 1.808594 C 13.929688 0.914062 14.015625 -0.132812 14.015625 -1.917969 Z M 14.015625 -8.058594 "/></g></g></g><g fill="#000000" fill-opacity="1"><g transform="translate(178.342294, 51.635652)"><g><path d="M 16.941406 0 L 16.941406 -0.46875 L 15.445312 -0.46875 L 15.445312 -8.125 C 15.445312 -10.066406 14.910156 -11.605469 13.839844 -12.8125 C 12.765625 -14.015625 11.09375 -14.84375 9.351562 -14.84375 C 7.769531 -14.84375 6.339844 -13.949219 5.648438 -12.765625 L 5.648438 -20.535156 L 1.449219 -20.535156 L 1.449219 -20.066406 L 2.992188 -20.066406 L 2.992188 -0.46875 L 1.449219 -0.46875 L 1.449219 0 L 7.144531 0 L 7.144531 -0.46875 L 5.648438 -0.46875 L 5.648438 -11.761719 C 6.316406 -13.414062 7.789062 -14.375 9.242188 -14.375 C 10.511719 -14.375 11.40625 -13.683594 11.875 -13.058594 C 12.765625 -11.851562 12.789062 -10.558594 12.789062 -8.882812 L 12.789062 0 Z M 16.941406 0 "/></g></g></g><g fill="#000000" fill-opacity="1"><g transform="translate(196.398282, 51.635652)"><g><path d="M 7.8125 -1.875 C 7.746094 -1.09375 7.230469 -0.601562 6.5625 -0.601562 C 5.960938 -0.601562 5.3125 -1.027344 5.3125 -2.097656 L 5.3125 -14.171875 L 7.835938 -14.171875 L 7.835938 -14.640625 L 5.3125 -14.640625 L 5.3125 -20.535156 L 2.65625 -20.535156 L 2.65625 -14.640625 L 1.117188 -14.640625 L 1.117188 -14.171875 L 2.65625 -14.171875 L 2.65625 -3.660156 C 2.65625 -2.699219 2.746094 -1.898438 3.035156 -1.292969 C 3.550781 -0.246094 4.464844 0.222656 5.871094 0.222656 C 7.277344 0.222656 8.238281 -0.691406 8.304688 -1.875 Z M 7.8125 -1.875 "/></g></g></g><g fill="#000000" fill-opacity="1"><g transform="translate(205.370486, 51.635652)"><g><path d="M 7.144531 0 L 7.144531 -0.46875 L 5.648438 -0.46875 L 5.648438 -20.535156 L 1.449219 -20.535156 L 1.449219 -20.066406 L 2.992188 -20.066406 L 2.992188 -0.46875 L 1.449219 -0.46875 L 1.449219 0 Z M 7.144531 0 "/></g></g></g><g fill="#000000" fill-opacity="1"><g transform="translate(212.624132, 51.635652)"><g><path d="M 13.90625 -8.058594 C 13.90625 -10.199219 13.4375 -11.585938 12.210938 -12.921875 C 11.070312 -14.152344 9.332031 -14.84375 7.679688 -14.84375 C 4.976562 -14.84375 2.542969 -13.125 1.785156 -10.625 C 1.519531 -9.777344 1.449219 -9.085938 1.449219 -8.125 L 1.449219 -6.5625 C 1.449219 -4.417969 1.917969 -3.035156 3.148438 -1.695312 C 4.285156 -0.46875 6.027344 0.222656 7.679688 0.222656 C 10.378906 0.222656 12.8125 -1.496094 13.570312 -3.996094 C 13.839844 -4.84375 13.90625 -5.535156 13.90625 -6.496094 Z M 11.25 -5.425781 C 11.25 -3.28125 10.890625 -2.1875 10.199219 -1.40625 C 9.554688 -0.667969 8.726562 -0.246094 7.679688 -0.246094 C 6.539062 -0.246094 5.601562 -0.757812 5.023438 -1.5625 C 4.332031 -2.5 4.105469 -3.503906 4.105469 -5.601562 L 4.105469 -9.195312 C 4.105469 -11.339844 4.464844 -12.433594 5.15625 -13.214844 C 5.804688 -13.949219 6.628906 -14.375 7.679688 -14.375 C 8.816406 -14.375 9.753906 -13.859375 10.335938 -13.058594 C 11.027344 -12.121094 11.25 -11.117188 11.25 -9.019531 Z M 11.25 -5.425781 "/></g></g></g><g fill="#000000" fill-opacity="1"><g transform="translate(227.979543, 51.635652)"><g><path d="M 9.910156 -11.40625 L 9.910156 -14.976562 L 9.441406 -14.976562 L 9.441406 -13.257812 C 8.90625 -14.261719 7.855469 -14.84375 6.472656 -14.84375 C 4.152344 -14.84375 2.230469 -12.902344 2.230469 -10.492188 C 2.230469 -5.113281 10.042969 -7.074219 10.042969 -3.238281 C 10.042969 -1.539062 8.550781 -0.246094 6.496094 -0.246094 C 4.195312 -0.246094 2.410156 -1.917969 2.230469 -4.261719 L 1.761719 -4.261719 L 1.761719 0.222656 L 2.230469 0.222656 L 2.230469 -2.230469 C 3.082031 -0.667969 4.644531 0.222656 6.472656 0.222656 C 9.21875 0.222656 11.382812 -1.875 11.382812 -4.488281 C 11.382812 -9.953125 3.75 -7.878906 3.75 -11.71875 C 3.75 -13.191406 4.957031 -14.351562 6.5625 -14.351562 C 8.214844 -14.351562 9.332031 -13.234375 9.464844 -11.40625 Z M 9.910156 -11.40625 "/></g></g></g><g fill="#000000" fill-opacity="1"><g transform="translate(240.478134, 51.635652)"><g><path d="M 9.910156 -11.40625 L 9.910156 -14.976562 L 9.441406 -14.976562 L 9.441406 -13.257812 C 8.90625 -14.261719 7.855469 -14.84375 6.472656 -14.84375 C 4.152344 -14.84375 2.230469 -12.902344 2.230469 -10.492188 C 2.230469 -5.113281 10.042969 -7.074219 10.042969 -3.238281 C 10.042969 -1.539062 8.550781 -0.246094 6.496094 -0.246094 C 4.195312 -0.246094 2.410156 -1.917969 2.230469 -4.261719 L 1.761719 -4.261719 L 1.761719 0.222656 L 2.230469 0.222656 L 2.230469 -2.230469 C 3.082031 -0.667969 4.644531 0.222656 6.472656 0.222656 C 9.21875 0.222656 11.382812 -1.875 11.382812 -4.488281 C 11.382812 -9.953125 3.75 -7.878906 3.75 -11.71875 C 3.75 -13.191406 4.957031 -14.351562 6.5625 -14.351562 C 8.214844 -14.351562 9.332031 -13.234375 9.464844 -11.40625 Z M 9.910156 -11.40625 "/></g></g></g><g fill="#000000" fill-opacity="1"><g transform="translate(252.976725, 51.635652)"><g><path d="M 7.03125 -18.324219 C 7.03125 -19.105469 6.382812 -19.753906 5.601562 -19.753906 C 4.820312 -19.753906 4.175781 -19.105469 4.175781 -18.324219 C 4.175781 -17.542969 4.820312 -16.898438 5.601562 -16.898438 C 6.382812 -16.898438 7.03125 -17.542969 7.03125 -18.324219 Z M 7.03125 -14.640625 L 2.679688 -14.640625 L 2.679688 -14.171875 L 4.375 -14.171875 L 4.375 2.566406 C 4.375 3.996094 4.21875 4.574219 3.792969 5.066406 C 3.460938 5.445312 3.058594 5.625 2.476562 5.625 C 2.230469 5.625 2.007812 5.582031 1.832031 5.492188 C 2.613281 5.3125 3.082031 4.730469 3.082031 3.972656 C 3.082031 3.101562 2.433594 2.457031 1.519531 2.457031 C 0.648438 2.457031 0 3.101562 0 3.996094 C 0 5.199219 1.183594 6.09375 2.679688 6.09375 C 5.738281 6.09375 7.03125 3.839844 7.03125 0.914062 Z M 7.03125 -14.640625 "/></g></g></g><g fill="#000000" fill-opacity="1"><g transform="translate(261.904283, 51.635652)"><g><path d="M 13.90625 -8.058594 C 13.90625 -10.199219 13.4375 -11.585938 12.210938 -12.921875 C 11.070312 -14.152344 9.332031 -14.84375 7.679688 -14.84375 C 4.976562 -14.84375 2.542969 -13.125 1.785156 -10.625 C 1.519531 -9.777344 1.449219 -9.085938 1.449219 -8.125 L 1.449219 -6.5625 C 1.449219 -4.417969 1.917969 -3.035156 3.148438 -1.695312 C 4.285156 -0.46875 6.027344 0.222656 7.679688 0.222656 C 10.378906 0.222656 12.8125 -1.496094 13.570312 -3.996094 C 13.839844 -4.84375 13.90625 -5.535156 13.90625 -6.496094 Z M 11.25 -5.425781 C 11.25 -3.28125 10.890625 -2.1875 10.199219 -1.40625 C 9.554688 -0.667969 8.726562 -0.246094 7.679688 -0.246094 C 6.539062 -0.246094 5.601562 -0.757812 5.023438 -1.5625 C 4.332031 -2.5 4.105469 -3.503906 4.105469 -5.601562 L 4.105469 -9.195312 C 4.105469 -11.339844 4.464844 -12.433594 5.15625 -13.214844 C 5.804688 -13.949219 6.628906 -14.375 7.679688 -14.375 C 8.816406 -14.375 9.753906 -13.859375 10.335938 -13.058594 C 11.027344 -12.121094 11.25 -11.117188 11.25 -9.019531 Z M 11.25 -5.425781 "/></g></g></g><g fill="#000000" fill-opacity="1"><g transform="translate(277.259694, 51.635652)"><g><path d="M 11.027344 -14.640625 L 11.027344 -14.171875 L 12.566406 -14.171875 L 12.566406 -4.820312 C 12.566406 -1.964844 11.070312 -0.269531 8.996094 -0.269531 C 6.917969 -0.269531 5.425781 -1.964844 5.425781 -4.820312 L 5.425781 -14.171875 L 6.917969 -14.171875 L 6.917969 -14.640625 L 1.226562 -14.640625 L 1.226562 -14.171875 L 2.769531 -14.171875 L 2.769531 -6.5625 C 2.769531 -5.46875 2.945312 -4.398438 3.257812 -3.59375 C 4.175781 -1.339844 6.449219 0.199219 8.996094 0.199219 C 11.539062 0.199219 13.816406 -1.339844 14.730469 -3.59375 C 15.042969 -4.398438 15.222656 -5.46875 15.222656 -6.5625 L 15.222656 -14.171875 L 16.71875 -14.171875 L 16.71875 -14.640625 Z M 11.027344 -14.640625 "/></g></g></g><g fill="#000000" fill-opacity="1"><g transform="translate(295.2041, 51.635652)"><g><path d="M 5.425781 -14.640625 L 1.226562 -14.640625 L 1.226562 -14.171875 L 2.769531 -14.171875 L 2.769531 -0.46875 L 1.226562 -0.46875 L 1.226562 0 L 7.097656 0 L 7.097656 -0.46875 L 5.425781 -0.46875 L 5.425781 -12.253906 C 6.117188 -13.503906 7.277344 -14.351562 8.191406 -14.351562 C 8.414062 -14.351562 8.570312 -14.308594 8.617188 -14.285156 C 7.902344 -14.195312 7.367188 -13.546875 7.367188 -12.789062 C 7.367188 -11.898438 8.035156 -11.226562 8.929688 -11.226562 C 9.84375 -11.226562 10.511719 -11.941406 10.511719 -12.878906 C 10.511719 -13.996094 9.597656 -14.84375 8.347656 -14.84375 C 7.1875 -14.84375 6.050781 -14.039062 5.425781 -13.035156 Z M 5.425781 -14.640625 "/></g></g></g><g fill="#000000" fill-opacity="1"><g transform="translate(305.716311, 51.635652)"><g><path d="M 16.71875 0 L 16.71875 -0.46875 L 15.222656 -0.46875 L 15.222656 -8.082031 C 15.222656 -9.175781 15.042969 -10.246094 14.730469 -11.046875 C 13.816406 -13.304688 11.539062 -14.84375 8.996094 -14.84375 C 6.449219 -14.84375 4.175781 -13.304688 3.257812 -11.046875 C 2.945312 -10.246094 2.769531 -9.175781 2.769531 -8.082031 L 2.769531 -0.46875 L 1.226562 -0.46875 L 1.226562 0 L 6.917969 0 L 6.917969 -0.46875 L 5.425781 -0.46875 L 5.425781 -9.820312 C 5.425781 -12.679688 6.917969 -14.375 8.996094 -14.375 C 11.070312 -14.375 12.566406 -12.679688 12.566406 -9.820312 L 12.566406 -0.46875 L 11.070312 -0.46875 L 11.070312 0 Z M 16.71875 0 "/></g></g></g><g fill="#000000" fill-opacity="1"><g transform="translate(323.660717, 51.635652)"><g><path d="M 13.996094 -6.988281 L 13.996094 -8.011719 C 13.996094 -10.691406 13.28125 -12.054688 11.917969 -13.304688 C 10.847656 -14.285156 9.21875 -14.84375 7.789062 -14.84375 C 4.105469 -14.84375 1.5625 -12.074219 1.5625 -8.28125 L 1.5625 -6.496094 C 1.5625 -4.398438 2.03125 -3.011719 3.191406 -1.742188 C 4.285156 -0.558594 5.9375 0.222656 7.925781 0.222656 C 10.535156 0.222656 12.542969 -1.160156 13.75 -3.792969 L 13.324219 -3.996094 C 12.054688 -1.40625 10.335938 -0.246094 7.992188 -0.246094 C 6.25 -0.246094 5.15625 -1.070312 4.644531 -2.367188 C 4.261719 -3.324219 4.21875 -4.554688 4.21875 -6.207031 L 4.21875 -6.988281 Z M 11.359375 -7.457031 L 4.21875 -7.457031 L 4.21875 -9.195312 C 4.21875 -11.339844 4.574219 -12.433594 5.269531 -13.214844 C 5.914062 -13.949219 6.742188 -14.375 7.789062 -14.375 C 8.929688 -14.375 9.867188 -13.859375 10.445312 -13.058594 C 11.136719 -12.121094 11.359375 -11.117188 11.359375 -9.019531 Z M 11.359375 -7.457031 "/></g></g></g><g fill="#000000" fill-opacity="1"><g transform="translate(338.770627, 51.635652)"><g><path d="M 1.226562 -14.640625 L 1.226562 -14.171875 L 2.722656 -14.171875 L 2.722656 -6.519531 C 2.722656 -4.574219 3.257812 -3.035156 4.332031 -1.832031 C 5.402344 -0.625 7.074219 0.199219 8.816406 0.199219 C 10.402344 0.199219 11.828125 -0.691406 12.523438 -1.875 L 12.523438 5.894531 L 16.71875 5.894531 L 16.71875 5.425781 L 15.179688 5.425781 L 15.179688 -14.640625 L 11.027344 -14.640625 L 11.027344 -14.171875 L 12.523438 -14.171875 L 12.523438 -2.878906 C 11.851562 -1.226562 10.378906 -0.269531 8.929688 -0.269531 C 7.65625 -0.269531 6.761719 -0.960938 6.292969 -1.585938 C 5.402344 -2.789062 5.378906 -4.085938 5.378906 -5.757812 L 5.378906 -14.640625 Z M 1.226562 -14.640625 "/></g></g></g><path fill="#ff0000" d="M 160.113281 21.480469 C 157.027344 16.828125 149.949219 18.316406 148.953125 23.34375 C 147.824219 29.042969 152.015625 31.085938 154.636719 33.292969 C 155.25 33.808594 157.59375 36.589844 158.457031 36.609375 C 159.074219 36.625 159.753906 35.328125 160.214844 34.953125 C 162.546875 33.039062 166.457031 31.351562 168.789062 29.148438 C 170.179688 27.835938 171.960938 25.617188 171.890625 23.136719 C 171.710938 16.839844 162.730469 16.898438 160.113281 21.480469 " fill-opacity="1" fill-rule="evenodd"/><path fill="#100f0d" d="M 158.664062 35.367188 C 155.769531 31.835938 148.101562 30.605469 149.78125 23.242188 C 150.945312 18.125 159.003906 18.03125 160.007812 23.65625 C 161.128906 23.609375 160.789062 22.535156 161.144531 21.789062 C 162.964844 17.96875 170.832031 17.835938 171.0625 23.136719 C 171.371094 30.160156 161.558594 31.238281 158.664062 35.367188 Z M 160.113281 21.480469 C 157.027344 16.828125 149.949219 18.316406 148.953125 23.34375 C 147.824219 29.042969 152.015625 31.085938 154.636719 33.292969 C 155.25 33.808594 157.59375 36.589844 158.457031 36.609375 C 159.074219 36.625 159.753906 35.328125 160.214844 34.953125 C 162.546875 33.039062 166.457031 31.351562 168.789062 29.148438 C 170.179688 27.835938 171.960938 25.617188 171.890625 23.136719 C 171.710938 16.839844 162.730469 16.898438 160.113281 21.480469 " fill-opacity="1" fill-rule="evenodd"/><g clip-path="url(#ede2bf63f0)"><path fill="#f4efe5" d="M 162.382812 13.808594 C 162.945312 12.507812 163 10.695312 163.519531 9.351562 C 162.636719 10.089844 160.980469 12.78125 162.382812 13.808594 " fill-opacity="1" fill-rule="evenodd"/></g><path fill="#f4efe5" d="M 155.152344 11.21875 C 154.433594 11.90625 155.167969 13.636719 155.460938 14.328125 C 155.769531 13.542969 155.992188 11.6875 155.152344 11.21875 " fill-opacity="1" fill-rule="evenodd"/><path fill="#f4efe5" d="M 168.480469 13.914062 C 168.6875 14.015625 168.644531 14.371094 168.996094 14.328125 C 169.582031 13.671875 170.207031 13.054688 170.445312 12.046875 C 169.40625 11.882812 168.800781 13.015625 168.480469 13.914062 " fill-opacity="1" fill-rule="evenodd"/><path fill="#f4efe5" d="M 146.472656 14.636719 C 146.980469 15.683594 147.972656 16.242188 148.644531 17.125 C 148.792969 15.890625 147.605469 14.585938 146.472656 14.636719 " fill-opacity="1" fill-rule="evenodd"/><g clip-path="url(#b6d25bc668)"><path fill="#f4efe5" d="M 176.125 21.0625 C 176.683594 21.875 178.332031 21.09375 178.8125 20.546875 C 178.1875 19.917969 176.378906 20.335938 176.125 21.0625 " fill-opacity="1" fill-rule="evenodd"/></g><g clip-path="url(#8d5950d9fa)"><path fill="#f4efe5" d="M 141.410156 21.480469 C 141.976562 22.359375 143.765625 22.019531 144.613281 22.617188 C 144.238281 21.691406 142.230469 20.628906 141.410156 21.480469 " fill-opacity="1" fill-rule="evenodd"/></g><g clip-path="url(#f57c875003)"><path fill="#f4efe5" d="M 175.300781 28.628906 C 175.734375 29.886719 177.734375 29.570312 178.707031 30.289062 C 178.332031 29.035156 176.574219 28.636719 175.300781 28.628906 " fill-opacity="1" fill-rule="evenodd"/></g><g clip-path="url(#5b4fbda59e)"><path fill="#f4efe5" d="M 141.410156 30.390625 C 142.3125 31.09375 144.039062 30.292969 145.234375 30.289062 C 144.804688 29.59375 141.648438 29.335938 141.410156 30.390625 " fill-opacity="1" fill-rule="evenodd"/></g><path fill="#f4efe5" d="M 167.652344 38.890625 C 168.210938 39.882812 168.867188 40.78125 170.027344 41.171875 C 169.835938 40.417969 168.484375 37.992188 167.652344 38.890625 " fill-opacity="1" fill-rule="evenodd"/><path fill="#f4efe5" d="M 147.609375 40.238281 C 148.53125 41.0625 150.03125 39.585938 149.984375 38.785156 C 149.042969 39.121094 147.90625 39.257812 147.609375 40.238281 " fill-opacity="1" fill-rule="evenodd"/><g clip-path="url(#8a700ec2a4)"><path fill="#f4efe5" d="M 157.632812 46.558594 C 159.007812 46.75 159.527344 44.125 159.285156 43.035156 C 158.628906 44.042969 157.722656 45.332031 157.632812 46.558594 " fill-opacity="1" fill-rule="evenodd"/></g></svg>