<svg xmlns="http://www.w3.org/2000/svg" xmlns:xlink="http://www.w3.org/1999/xlink" width="500" zoomAndPan="magnify" viewBox="0 0 375 93.749996" height="125" preserveAspectRatio="xMidYMid meet" version="1.0"><defs><g/><clipPath id="3d03c9de1c"><path d="M 0.5 0 L 374.5 0 L 374.5 93.5 L 0.5 93.5 Z M 0.5 0 " clip-rule="nonzero"/></clipPath><clipPath id="13ebce2155"><path d="M 14.03125 18.492188 L 70.882812 18.492188 L 70.882812 75.339844 L 14.03125 75.339844 Z M 14.03125 18.492188 " clip-rule="nonzero"/></clipPath></defs><g clip-path="url(#3d03c9de1c)"><path fill="#ffffff" d="M 0.5 0 L 374.5 0 L 374.5 93.5 L 0.5 93.5 Z M 0.5 0 " fill-opacity="1" fill-rule="nonzero"/><path fill="#ffffff" d="M 0.5 0 L 374.5 0 L 374.5 93.5 L 0.5 93.5 Z M 0.5 0 " fill-opacity="1" fill-rule="nonzero"/></g><g clip-path="url(#13ebce2155)"><path fill="#000000" d="M 14.03125 46.914062 C 14.03125 31.214844 26.757812 18.492188 42.457031 18.492188 C 58.15625 18.492188 70.882812 31.214844 70.882812 46.914062 C 70.882812 62.613281 58.15625 75.339844 42.457031 75.339844 C 26.757812 75.339844 14.03125 62.613281 14.03125 46.914062 " fill-opacity="1" fill-rule="nonzero"/></g><path fill="#ffffff" d="M 34.933594 36.882812 C 34.636719 36.882812 34.398438 37.125 34.398438 37.417969 C 34.398438 37.710938 34.636719 37.949219 34.933594 37.949219 C 35.226562 37.949219 35.464844 37.710938 35.464844 37.417969 C 35.464844 37.125 35.226562 36.882812 34.933594 36.882812 " fill-opacity="1" fill-rule="nonzero"/><path fill="#ffffff" d="M 49.980469 40.441406 C 48.3125 40.441406 46.957031 39.085938 46.957031 37.417969 C 46.957031 35.75 48.3125 34.390625 49.980469 34.390625 C 51.648438 34.390625 53.007812 35.75 53.007812 37.417969 C 53.007812 39.085938 51.648438 40.441406 49.980469 40.441406 Z M 42.457031 57.652344 C 41.550781 57.652344 40.839844 56.714844 40.839844 55.515625 C 40.839844 54.320312 41.550781 53.378906 42.457031 53.378906 C 43.363281 53.378906 44.074219 54.320312 44.074219 55.515625 C 44.074219 56.714844 43.363281 57.652344 42.457031 57.652344 Z M 42.125 44.554688 C 42.125 44.371094 42.273438 44.222656 42.457031 44.222656 C 42.640625 44.222656 42.789062 44.371094 42.789062 44.554688 L 42.789062 51.792969 C 42.789062 51.976562 42.640625 52.125 42.457031 52.125 C 42.273438 52.125 42.125 51.976562 42.125 51.792969 Z M 34.933594 40.441406 C 33.261719 40.441406 31.90625 39.085938 31.90625 37.417969 C 31.90625 35.75 33.261719 34.390625 34.933594 34.390625 C 36.601562 34.390625 37.957031 35.75 37.957031 37.417969 C 37.957031 39.085938 36.601562 40.441406 34.933594 40.441406 Z M 49.597656 30.613281 C 45.84375 30.613281 42.789062 33.664062 42.789062 37.417969 C 42.789062 37.601562 42.640625 37.75 42.457031 37.75 C 42.273438 37.75 42.125 37.601562 42.125 37.417969 C 42.125 33.664062 39.070312 30.613281 35.316406 30.613281 C 31.5625 30.613281 28.507812 33.664062 28.507812 37.417969 C 28.507812 37.578125 28.515625 37.734375 28.527344 37.894531 C 28.527344 37.933594 28.53125 37.972656 28.535156 38.011719 C 28.546875 38.164062 28.566406 38.3125 28.589844 38.464844 C 28.59375 38.496094 28.601562 38.527344 28.605469 38.558594 C 28.625 38.679688 28.648438 38.796875 28.675781 38.917969 C 28.6875 38.96875 28.699219 39.019531 28.710938 39.066406 C 28.746094 39.199219 28.78125 39.332031 28.824219 39.464844 C 28.839844 39.515625 28.859375 39.570312 28.878906 39.621094 C 28.910156 39.71875 28.945312 39.8125 28.980469 39.90625 C 29 39.957031 29.019531 40.007812 29.042969 40.058594 C 29.09375 40.179688 29.152344 40.300781 29.210938 40.421875 C 29.234375 40.476562 29.261719 40.527344 29.289062 40.578125 C 29.351562 40.691406 29.414062 40.804688 29.480469 40.917969 C 29.503906 40.960938 29.53125 41 29.558594 41.039062 C 29.621094 41.140625 29.683594 41.234375 29.753906 41.332031 C 30.984375 43.078125 33.019531 44.222656 35.316406 44.222656 C 36.671875 44.222656 37.976562 43.824219 39.097656 43.074219 C 39.25 42.972656 39.457031 43.015625 39.558594 43.167969 C 39.664062 43.320312 39.621094 43.527344 39.46875 43.628906 C 38.238281 44.453125 36.800781 44.886719 35.316406 44.886719 C 33.171875 44.886719 31.234375 43.976562 29.871094 42.523438 C 29.871094 44.203125 30.378906 45.820312 31.335938 47.199219 L 32.3125 48.613281 C 33.351562 50.105469 33.898438 51.855469 33.898438 53.671875 C 33.898438 56.023438 33.234375 58.320312 31.976562 60.308594 L 30.140625 63.21875 L 42.125 63.21875 L 42.125 59.242188 C 42.125 59.058594 42.273438 58.910156 42.457031 58.910156 C 42.640625 58.910156 42.789062 59.058594 42.789062 59.242188 L 42.789062 63.21875 L 54.773438 63.21875 L 52.9375 60.308594 C 51.679688 58.320312 51.015625 56.023438 51.015625 53.671875 C 51.015625 51.855469 51.5625 50.105469 52.597656 48.613281 L 53.578125 47.199219 C 54.535156 45.820312 55.042969 44.203125 55.042969 42.523438 C 53.679688 43.976562 51.742188 44.886719 49.597656 44.886719 C 48.109375 44.886719 46.675781 44.453125 45.445312 43.628906 C 45.292969 43.527344 45.25 43.320312 45.355469 43.167969 C 45.457031 43.015625 45.664062 42.972656 45.816406 43.074219 C 46.9375 43.824219 48.242188 44.222656 49.597656 44.222656 C 51.894531 44.222656 53.929688 43.078125 55.160156 41.332031 C 55.230469 41.234375 55.292969 41.140625 55.355469 41.042969 C 55.382812 41 55.410156 40.957031 55.433594 40.914062 C 55.5 40.804688 55.5625 40.691406 55.625 40.578125 C 55.652344 40.527344 55.679688 40.476562 55.703125 40.421875 C 55.761719 40.300781 55.820312 40.179688 55.871094 40.058594 C 55.894531 40.007812 55.910156 39.957031 55.933594 39.90625 C 55.96875 39.8125 56.003906 39.71875 56.035156 39.621094 C 56.054688 39.570312 56.074219 39.515625 56.089844 39.464844 C 56.132812 39.332031 56.167969 39.199219 56.203125 39.066406 C 56.214844 39.019531 56.226562 38.96875 56.238281 38.917969 C 56.265625 38.796875 56.289062 38.679688 56.308594 38.558594 C 56.3125 38.527344 56.320312 38.496094 56.324219 38.464844 C 56.347656 38.3125 56.363281 38.164062 56.378906 38.011719 C 56.382812 37.972656 56.382812 37.933594 56.386719 37.894531 C 56.398438 37.734375 56.40625 37.578125 56.40625 37.417969 C 56.40625 33.664062 53.351562 30.613281 49.597656 30.613281 " fill-opacity="1" fill-rule="nonzero"/><path fill="#ffffff" d="M 49.980469 36.882812 C 49.6875 36.882812 49.449219 37.125 49.449219 37.417969 C 49.449219 37.710938 49.6875 37.949219 49.980469 37.949219 C 50.273438 37.949219 50.515625 37.710938 50.515625 37.417969 C 50.515625 37.125 50.273438 36.882812 49.980469 36.882812 " fill-opacity="1" fill-rule="nonzero"/><path fill="#ffffff" d="M 56.449219 27.695312 C 55.636719 27.695312 54.976562 28.355469 54.976562 29.167969 C 54.976562 29.980469 55.636719 30.640625 56.449219 30.640625 C 57.261719 30.640625 57.921875 29.980469 57.921875 29.167969 C 57.921875 28.355469 57.261719 27.695312 56.449219 27.695312 Z M 56.449219 31.378906 C 55.230469 31.378906 54.238281 30.386719 54.238281 29.167969 C 54.238281 27.949219 55.230469 26.957031 56.449219 26.957031 C 57.667969 26.957031 58.65625 27.949219 58.65625 29.167969 C 58.65625 30.386719 57.667969 31.378906 56.449219 31.378906 " fill-opacity="1" fill-rule="nonzero"/><path fill="#ffffff" d="M 32 67.164062 C 31.472656 67.164062 31.042969 67.59375 31.042969 68.121094 C 31.042969 68.648438 31.472656 69.078125 32 69.078125 C 32.527344 69.078125 32.957031 68.648438 32.957031 68.121094 C 32.957031 67.59375 32.527344 67.164062 32 67.164062 Z M 32 69.816406 C 31.066406 69.816406 30.304688 69.054688 30.304688 68.121094 C 30.304688 67.1875 31.066406 66.429688 32 66.429688 C 32.933594 66.429688 33.695312 67.1875 33.695312 68.121094 C 33.695312 69.054688 32.933594 69.816406 32 69.816406 " fill-opacity="1" fill-rule="nonzero"/><path fill="#ffffff" d="M 35.800781 26.03125 C 35.707031 26.03125 35.613281 25.992188 35.539062 25.921875 C 35.398438 25.777344 35.398438 25.546875 35.539062 25.402344 L 38.25 22.695312 C 38.390625 22.550781 38.625 22.550781 38.769531 22.695312 C 38.914062 22.835938 38.914062 23.070312 38.769531 23.214844 L 36.0625 25.921875 C 35.988281 25.992188 35.894531 26.03125 35.800781 26.03125 " fill-opacity="1" fill-rule="nonzero"/><path fill="#ffffff" d="M 38.507812 26.03125 C 38.414062 26.03125 38.320312 25.992188 38.25 25.921875 L 35.539062 23.214844 C 35.398438 23.070312 35.398438 22.835938 35.539062 22.695312 C 35.683594 22.550781 35.917969 22.550781 36.0625 22.695312 L 38.769531 25.402344 C 38.914062 25.546875 38.914062 25.777344 38.769531 25.921875 C 38.699219 25.992188 38.601562 26.03125 38.507812 26.03125 " fill-opacity="1" fill-rule="nonzero"/><path fill="#ffffff" d="M 18.597656 53.761719 C 18.503906 53.761719 18.410156 53.726562 18.339844 53.65625 C 18.195312 53.511719 18.195312 53.277344 18.339844 53.132812 L 20.105469 51.367188 C 20.25 51.222656 20.480469 51.222656 20.625 51.367188 C 20.769531 51.511719 20.769531 51.742188 20.625 51.886719 L 18.859375 53.65625 C 18.785156 53.726562 18.691406 53.761719 18.597656 53.761719 " fill-opacity="1" fill-rule="nonzero"/><path fill="#ffffff" d="M 20.367188 53.761719 C 20.269531 53.761719 20.175781 53.726562 20.105469 53.65625 L 18.339844 51.886719 C 18.195312 51.742188 18.195312 51.511719 18.339844 51.367188 C 18.480469 51.222656 18.714844 51.222656 18.859375 51.367188 L 20.625 53.132812 C 20.769531 53.277344 20.769531 53.511719 20.625 53.65625 C 20.554688 53.726562 20.460938 53.761719 20.367188 53.761719 " fill-opacity="1" fill-rule="nonzero"/><path fill="#ffffff" d="M 64.917969 45.664062 C 64.820312 45.664062 64.726562 45.625 64.65625 45.554688 C 64.511719 45.410156 64.511719 45.179688 64.65625 45.035156 L 66.421875 43.265625 C 66.566406 43.125 66.800781 43.125 66.945312 43.265625 C 67.085938 43.410156 67.085938 43.644531 66.945312 43.789062 L 65.175781 45.554688 C 65.105469 45.625 65.011719 45.664062 64.917969 45.664062 " fill-opacity="1" fill-rule="nonzero"/><path fill="#ffffff" d="M 66.683594 45.664062 C 66.589844 45.664062 66.496094 45.625 66.421875 45.554688 L 64.65625 43.789062 C 64.511719 43.644531 64.511719 43.410156 64.65625 43.265625 C 64.800781 43.125 65.03125 43.125 65.175781 43.265625 L 66.945312 45.035156 C 67.085938 45.179688 67.085938 45.410156 66.945312 45.554688 C 66.871094 45.625 66.777344 45.664062 66.683594 45.664062 " fill-opacity="1" fill-rule="nonzero"/><g fill="#000000" fill-opacity="1"><g transform="translate(74.777733, 54.598702)"><g><path d="M 7.8125 -1.875 C 7.746094 -1.09375 7.230469 -0.601562 6.5625 -0.601562 C 5.960938 -0.601562 5.3125 -1.027344 5.3125 -2.097656 L 5.3125 -14.171875 L 7.835938 -14.171875 L 7.835938 -14.640625 L 5.3125 -14.640625 L 5.3125 -20.535156 L 2.65625 -20.535156 L 2.65625 -14.640625 L 1.117188 -14.640625 L 1.117188 -14.171875 L 2.65625 -14.171875 L 2.65625 -3.660156 C 2.65625 -2.699219 2.746094 -1.898438 3.035156 -1.292969 C 3.550781 -0.246094 4.464844 0.222656 5.871094 0.222656 C 7.277344 0.222656 8.238281 -0.691406 8.304688 -1.875 Z M 7.8125 -1.875 "/></g></g></g><g fill="#000000" fill-opacity="1"><g transform="translate(83.749936, 54.598702)"><g><path d="M 5.425781 -14.640625 L 1.226562 -14.640625 L 1.226562 -14.171875 L 2.769531 -14.171875 L 2.769531 -0.46875 L 1.226562 -0.46875 L 1.226562 0 L 7.097656 0 L 7.097656 -0.46875 L 5.425781 -0.46875 L 5.425781 -12.253906 C 6.117188 -13.503906 7.277344 -14.351562 8.191406 -14.351562 C 8.414062 -14.351562 8.570312 -14.308594 8.617188 -14.285156 C 7.902344 -14.195312 7.367188 -13.546875 7.367188 -12.789062 C 7.367188 -11.898438 8.035156 -11.226562 8.929688 -11.226562 C 9.84375 -11.226562 10.511719 -11.941406 10.511719 -12.878906 C 10.511719 -13.996094 9.597656 -14.84375 8.347656 -14.84375 C 7.1875 -14.84375 6.050781 -14.039062 5.425781 -13.035156 Z M 5.425781 -14.640625 "/></g></g></g><g fill="#000000" fill-opacity="1"><g transform="translate(94.262147, 54.598702)"><g><path d="M 11.027344 -14.640625 L 11.027344 -14.171875 L 12.566406 -14.171875 L 12.566406 -4.820312 C 12.566406 -1.964844 11.070312 -0.269531 8.996094 -0.269531 C 6.917969 -0.269531 5.425781 -1.964844 5.425781 -4.820312 L 5.425781 -14.171875 L 6.917969 -14.171875 L 6.917969 -14.640625 L 1.226562 -14.640625 L 1.226562 -14.171875 L 2.769531 -14.171875 L 2.769531 -6.5625 C 2.769531 -5.46875 2.945312 -4.398438 3.257812 -3.59375 C 4.175781 -1.339844 6.449219 0.199219 8.996094 0.199219 C 11.539062 0.199219 13.816406 -1.339844 14.730469 -3.59375 C 15.042969 -4.398438 15.222656 -5.46875 15.222656 -6.5625 L 15.222656 -14.171875 L 16.71875 -14.171875 L 16.71875 -14.640625 Z M 11.027344 -14.640625 "/></g></g></g><g fill="#000000" fill-opacity="1"><g transform="translate(112.206553, 54.598702)"><g><path d="M 13.996094 -6.988281 L 13.996094 -8.011719 C 13.996094 -10.691406 13.28125 -12.054688 11.917969 -13.304688 C 10.847656 -14.285156 9.21875 -14.84375 7.789062 -14.84375 C 4.105469 -14.84375 1.5625 -12.074219 1.5625 -8.28125 L 1.5625 -6.496094 C 1.5625 -4.398438 2.03125 -3.011719 3.191406 -1.742188 C 4.285156 -0.558594 5.9375 0.222656 7.925781 0.222656 C 10.535156 0.222656 12.542969 -1.160156 13.75 -3.792969 L 13.324219 -3.996094 C 12.054688 -1.40625 10.335938 -0.246094 7.992188 -0.246094 C 6.25 -0.246094 5.15625 -1.070312 4.644531 -2.367188 C 4.261719 -3.324219 4.21875 -4.554688 4.21875 -6.207031 L 4.21875 -6.988281 Z M 11.359375 -7.457031 L 4.21875 -7.457031 L 4.21875 -9.195312 C 4.21875 -11.339844 4.574219 -12.433594 5.269531 -13.214844 C 5.914062 -13.949219 6.742188 -14.375 7.789062 -14.375 C 8.929688 -14.375 9.867188 -13.859375 10.445312 -13.058594 C 11.136719 -12.121094 11.359375 -11.117188 11.359375 -9.019531 Z M 11.359375 -7.457031 "/></g></g></g><g fill="#000000" fill-opacity="1"><g transform="translate(127.316447, 54.598702)"><g><path d="M 20.9375 -14.171875 L 20.9375 -14.640625 L 17.902344 -14.640625 L 17.902344 -14.171875 L 19.085938 -14.171875 L 13.90625 -3.414062 L 11.695312 -8.324219 L 14.53125 -14.171875 L 15.714844 -14.171875 L 15.714844 -14.640625 L 12.632812 -14.640625 L 12.632812 -14.171875 L 13.972656 -14.171875 L 11.429688 -8.90625 L 9.039062 -14.171875 L 10.601562 -14.171875 L 10.601562 -14.640625 L 5.402344 -14.640625 L 5.402344 -14.171875 L 6.273438 -14.171875 L 10.023438 -5.960938 L 8.792969 -3.414062 L 3.90625 -14.171875 L 4.910156 -14.171875 L 4.910156 -14.640625 L 0 -14.640625 L 0 -14.171875 L 1.136719 -14.171875 L 7.65625 0.113281 L 10.289062 -5.355469 L 12.789062 0.0898438 L 19.710938 -14.171875 Z M 20.9375 -14.171875 "/></g></g></g><g fill="#000000" fill-opacity="1"><g transform="translate(147.58201, 54.598702)"><g><path d="M 13.996094 -6.988281 L 13.996094 -8.011719 C 13.996094 -10.691406 13.28125 -12.054688 11.917969 -13.304688 C 10.847656 -14.285156 9.21875 -14.84375 7.789062 -14.84375 C 4.105469 -14.84375 1.5625 -12.074219 1.5625 -8.28125 L 1.5625 -6.496094 C 1.5625 -4.398438 2.03125 -3.011719 3.191406 -1.742188 C 4.285156 -0.558594 5.9375 0.222656 7.925781 0.222656 C 10.535156 0.222656 12.542969 -1.160156 13.75 -3.792969 L 13.324219 -3.996094 C 12.054688 -1.40625 10.335938 -0.246094 7.992188 -0.246094 C 6.25 -0.246094 5.15625 -1.070312 4.644531 -2.367188 C 4.261719 -3.324219 4.21875 -4.554688 4.21875 -6.207031 L 4.21875 -6.988281 Z M 11.359375 -7.457031 L 4.21875 -7.457031 L 4.21875 -9.195312 C 4.21875 -11.339844 4.574219 -12.433594 5.269531 -13.214844 C 5.914062 -13.949219 6.742188 -14.375 7.789062 -14.375 C 8.929688 -14.375 9.867188 -13.859375 10.445312 -13.058594 C 11.136719 -12.121094 11.359375 -11.117188 11.359375 -9.019531 Z M 11.359375 -7.457031 "/></g></g></g><g fill="#000000" fill-opacity="1"><g transform="translate(162.691903, 54.598702)"><g><path d="M 5.648438 -18.324219 C 5.648438 -19.105469 5 -19.753906 4.21875 -19.753906 C 3.4375 -19.753906 2.789062 -19.105469 2.789062 -18.324219 C 2.789062 -17.542969 3.4375 -16.898438 4.21875 -16.898438 C 5 -16.898438 5.648438 -17.542969 5.648438 -18.324219 Z M 7.144531 0 L 7.144531 -0.46875 L 5.648438 -0.46875 L 5.648438 -14.640625 L 1.449219 -14.640625 L 1.449219 -14.171875 L 2.992188 -14.171875 L 2.992188 -0.46875 L 1.449219 -0.46875 L 1.449219 0 Z M 7.144531 0 "/></g></g></g><g fill="#000000" fill-opacity="1"><g transform="translate(171.173088, 54.598702)"><g><path d="M 11.359375 -2.855469 C 10.691406 -1.207031 9.21875 -0.246094 7.769531 -0.246094 C 6.496094 -0.246094 5.601562 -0.9375 5.132812 -1.5625 C 4.242188 -2.769531 4.21875 -4.0625 4.21875 -5.738281 L 4.21875 -9.195312 C 4.21875 -11.339844 4.574219 -12.433594 5.269531 -13.214844 C 5.914062 -13.949219 6.742188 -14.375 7.789062 -14.375 C 8.929688 -14.375 9.867188 -13.859375 10.445312 -13.058594 C 11.136719 -12.121094 11.359375 -11.117188 11.359375 -9.019531 Z M 14.015625 -8.058594 C 14.015625 -10.199219 13.546875 -11.585938 12.320312 -12.921875 C 11.183594 -14.152344 9.441406 -14.84375 7.789062 -14.84375 C 5.089844 -14.84375 2.65625 -13.125 1.898438 -10.625 C 1.628906 -9.777344 1.5625 -9.085938 1.5625 -8.125 L 1.5625 -6.496094 C 1.5625 -4.554688 2.097656 -3.011719 3.167969 -1.808594 C 4.242188 -0.601562 5.914062 0.222656 7.65625 0.222656 C 9.242188 0.222656 10.691406 -0.667969 11.382812 -1.851562 L 11.382812 1.003906 C 11.382812 2.542969 11.316406 2.992188 11.046875 3.636719 C 10.804688 4.21875 10.421875 4.710938 9.953125 5.042969 C 9.398438 5.445312 8.550781 5.691406 7.789062 5.691406 C 6.292969 5.691406 5.042969 4.933594 4.554688 3.707031 C 4.820312 3.929688 5.15625 4.019531 5.46875 4.019531 C 6.339844 4.019531 6.964844 3.414062 6.964844 2.523438 C 6.964844 1.675781 6.273438 1.003906 5.445312 1.003906 C 4.53125 1.003906 3.839844 1.785156 3.839844 2.789062 C 3.839844 4.6875 5.582031 6.136719 7.878906 6.136719 C 10.558594 6.136719 13.101562 4.21875 13.703125 1.808594 C 13.929688 0.914062 14.015625 -0.132812 14.015625 -1.917969 Z M 14.015625 -8.058594 "/></g></g></g><g fill="#000000" fill-opacity="1"><g transform="translate(186.751678, 54.598702)"><g><path d="M 16.941406 0 L 16.941406 -0.46875 L 15.445312 -0.46875 L 15.445312 -8.125 C 15.445312 -10.066406 14.910156 -11.605469 13.839844 -12.8125 C 12.765625 -14.015625 11.09375 -14.84375 9.351562 -14.84375 C 7.769531 -14.84375 6.339844 -13.949219 5.648438 -12.765625 L 5.648438 -20.535156 L 1.449219 -20.535156 L 1.449219 -20.066406 L 2.992188 -20.066406 L 2.992188 -0.46875 L 1.449219 -0.46875 L 1.449219 0 L 7.144531 0 L 7.144531 -0.46875 L 5.648438 -0.46875 L 5.648438 -11.761719 C 6.316406 -13.414062 7.789062 -14.375 9.242188 -14.375 C 10.511719 -14.375 11.40625 -13.683594 11.875 -13.058594 C 12.765625 -11.851562 12.789062 -10.558594 12.789062 -8.882812 L 12.789062 0 Z M 16.941406 0 "/></g></g></g><g fill="#000000" fill-opacity="1"><g transform="translate(204.807666, 54.598702)"><g><path d="M 7.8125 -1.875 C 7.746094 -1.09375 7.230469 -0.601562 6.5625 -0.601562 C 5.960938 -0.601562 5.3125 -1.027344 5.3125 -2.097656 L 5.3125 -14.171875 L 7.835938 -14.171875 L 7.835938 -14.640625 L 5.3125 -14.640625 L 5.3125 -20.535156 L 2.65625 -20.535156 L 2.65625 -14.640625 L 1.117188 -14.640625 L 1.117188 -14.171875 L 2.65625 -14.171875 L 2.65625 -3.660156 C 2.65625 -2.699219 2.746094 -1.898438 3.035156 -1.292969 C 3.550781 -0.246094 4.464844 0.222656 5.871094 0.222656 C 7.277344 0.222656 8.238281 -0.691406 8.304688 -1.875 Z M 7.8125 -1.875 "/></g></g></g><g fill="#000000" fill-opacity="1"><g transform="translate(213.779869, 54.598702)"><g><path d="M 7.144531 0 L 7.144531 -0.46875 L 5.648438 -0.46875 L 5.648438 -20.535156 L 1.449219 -20.535156 L 1.449219 -20.066406 L 2.992188 -20.066406 L 2.992188 -0.46875 L 1.449219 -0.46875 L 1.449219 0 Z M 7.144531 0 "/></g></g></g><g fill="#000000" fill-opacity="1"><g transform="translate(221.033516, 54.598702)"><g><path d="M 13.90625 -8.058594 C 13.90625 -10.199219 13.4375 -11.585938 12.210938 -12.921875 C 11.070312 -14.152344 9.332031 -14.84375 7.679688 -14.84375 C 4.976562 -14.84375 2.542969 -13.125 1.785156 -10.625 C 1.519531 -9.777344 1.449219 -9.085938 1.449219 -8.125 L 1.449219 -6.5625 C 1.449219 -4.417969 1.917969 -3.035156 3.148438 -1.695312 C 4.285156 -0.46875 6.027344 0.222656 7.679688 0.222656 C 10.378906 0.222656 12.8125 -1.496094 13.570312 -3.996094 C 13.839844 -4.84375 13.90625 -5.535156 13.90625 -6.496094 Z M 11.25 -5.425781 C 11.25 -3.28125 10.890625 -2.1875 10.199219 -1.40625 C 9.554688 -0.667969 8.726562 -0.246094 7.679688 -0.246094 C 6.539062 -0.246094 5.601562 -0.757812 5.023438 -1.5625 C 4.332031 -2.5 4.105469 -3.503906 4.105469 -5.601562 L 4.105469 -9.195312 C 4.105469 -11.339844 4.464844 -12.433594 5.15625 -13.214844 C 5.804688 -13.949219 6.628906 -14.375 7.679688 -14.375 C 8.816406 -14.375 9.753906 -13.859375 10.335938 -13.058594 C 11.027344 -12.121094 11.25 -11.117188 11.25 -9.019531 Z M 11.25 -5.425781 "/></g></g></g><g fill="#000000" fill-opacity="1"><g transform="translate(236.388927, 54.598702)"><g><path d="M 9.910156 -11.40625 L 9.910156 -14.976562 L 9.441406 -14.976562 L 9.441406 -13.257812 C 8.90625 -14.261719 7.855469 -14.84375 6.472656 -14.84375 C 4.152344 -14.84375 2.230469 -12.902344 2.230469 -10.492188 C 2.230469 -5.113281 10.042969 -7.074219 10.042969 -3.238281 C 10.042969 -1.539062 8.550781 -0.246094 6.496094 -0.246094 C 4.195312 -0.246094 2.410156 -1.917969 2.230469 -4.261719 L 1.761719 -4.261719 L 1.761719 0.222656 L 2.230469 0.222656 L 2.230469 -2.230469 C 3.082031 -0.667969 4.644531 0.222656 6.472656 0.222656 C 9.21875 0.222656 11.382812 -1.875 11.382812 -4.488281 C 11.382812 -9.953125 3.75 -7.878906 3.75 -11.71875 C 3.75 -13.191406 4.957031 -14.351562 6.5625 -14.351562 C 8.214844 -14.351562 9.332031 -13.234375 9.464844 -11.40625 Z M 9.910156 -11.40625 "/></g></g></g><g fill="#000000" fill-opacity="1"><g transform="translate(248.887518, 54.598702)"><g><path d="M 9.910156 -11.40625 L 9.910156 -14.976562 L 9.441406 -14.976562 L 9.441406 -13.257812 C 8.90625 -14.261719 7.855469 -14.84375 6.472656 -14.84375 C 4.152344 -14.84375 2.230469 -12.902344 2.230469 -10.492188 C 2.230469 -5.113281 10.042969 -7.074219 10.042969 -3.238281 C 10.042969 -1.539062 8.550781 -0.246094 6.496094 -0.246094 C 4.195312 -0.246094 2.410156 -1.917969 2.230469 -4.261719 L 1.761719 -4.261719 L 1.761719 0.222656 L 2.230469 0.222656 L 2.230469 -2.230469 C 3.082031 -0.667969 4.644531 0.222656 6.472656 0.222656 C 9.21875 0.222656 11.382812 -1.875 11.382812 -4.488281 C 11.382812 -9.953125 3.75 -7.878906 3.75 -11.71875 C 3.75 -13.191406 4.957031 -14.351562 6.5625 -14.351562 C 8.214844 -14.351562 9.332031 -13.234375 9.464844 -11.40625 Z M 9.910156 -11.40625 "/></g></g></g><g fill="#000000" fill-opacity="1"><g transform="translate(261.386109, 54.598702)"><g><path d="M 7.03125 -18.324219 C 7.03125 -19.105469 6.382812 -19.753906 5.601562 -19.753906 C 4.820312 -19.753906 4.175781 -19.105469 4.175781 -18.324219 C 4.175781 -17.542969 4.820312 -16.898438 5.601562 -16.898438 C 6.382812 -16.898438 7.03125 -17.542969 7.03125 -18.324219 Z M 7.03125 -14.640625 L 2.679688 -14.640625 L 2.679688 -14.171875 L 4.375 -14.171875 L 4.375 2.566406 C 4.375 3.996094 4.21875 4.574219 3.792969 5.066406 C 3.460938 5.445312 3.058594 5.625 2.476562 5.625 C 2.230469 5.625 2.007812 5.582031 1.832031 5.492188 C 2.613281 5.3125 3.082031 4.730469 3.082031 3.972656 C 3.082031 3.101562 2.433594 2.457031 1.519531 2.457031 C 0.648438 2.457031 0 3.101562 0 3.996094 C 0 5.199219 1.183594 6.09375 2.679688 6.09375 C 5.738281 6.09375 7.03125 3.839844 7.03125 0.914062 Z M 7.03125 -14.640625 "/></g></g></g><g fill="#000000" fill-opacity="1"><g transform="translate(270.313667, 54.598702)"><g><path d="M 13.90625 -8.058594 C 13.90625 -10.199219 13.4375 -11.585938 12.210938 -12.921875 C 11.070312 -14.152344 9.332031 -14.84375 7.679688 -14.84375 C 4.976562 -14.84375 2.542969 -13.125 1.785156 -10.625 C 1.519531 -9.777344 1.449219 -9.085938 1.449219 -8.125 L 1.449219 -6.5625 C 1.449219 -4.417969 1.917969 -3.035156 3.148438 -1.695312 C 4.285156 -0.46875 6.027344 0.222656 7.679688 0.222656 C 10.378906 0.222656 12.8125 -1.496094 13.570312 -3.996094 C 13.839844 -4.84375 13.90625 -5.535156 13.90625 -6.496094 Z M 11.25 -5.425781 C 11.25 -3.28125 10.890625 -2.1875 10.199219 -1.40625 C 9.554688 -0.667969 8.726562 -0.246094 7.679688 -0.246094 C 6.539062 -0.246094 5.601562 -0.757812 5.023438 -1.5625 C 4.332031 -2.5 4.105469 -3.503906 4.105469 -5.601562 L 4.105469 -9.195312 C 4.105469 -11.339844 4.464844 -12.433594 5.15625 -13.214844 C 5.804688 -13.949219 6.628906 -14.375 7.679688 -14.375 C 8.816406 -14.375 9.753906 -13.859375 10.335938 -13.058594 C 11.027344 -12.121094 11.25 -11.117188 11.25 -9.019531 Z M 11.25 -5.425781 "/></g></g></g><g fill="#000000" fill-opacity="1"><g transform="translate(285.669077, 54.598702)"><g><path d="M 11.027344 -14.640625 L 11.027344 -14.171875 L 12.566406 -14.171875 L 12.566406 -4.820312 C 12.566406 -1.964844 11.070312 -0.269531 8.996094 -0.269531 C 6.917969 -0.269531 5.425781 -1.964844 5.425781 -4.820312 L 5.425781 -14.171875 L 6.917969 -14.171875 L 6.917969 -14.640625 L 1.226562 -14.640625 L 1.226562 -14.171875 L 2.769531 -14.171875 L 2.769531 -6.5625 C 2.769531 -5.46875 2.945312 -4.398438 3.257812 -3.59375 C 4.175781 -1.339844 6.449219 0.199219 8.996094 0.199219 C 11.539062 0.199219 13.816406 -1.339844 14.730469 -3.59375 C 15.042969 -4.398438 15.222656 -5.46875 15.222656 -6.5625 L 15.222656 -14.171875 L 16.71875 -14.171875 L 16.71875 -14.640625 Z M 11.027344 -14.640625 "/></g></g></g><g fill="#000000" fill-opacity="1"><g transform="translate(303.613484, 54.598702)"><g><path d="M 5.425781 -14.640625 L 1.226562 -14.640625 L 1.226562 -14.171875 L 2.769531 -14.171875 L 2.769531 -0.46875 L 1.226562 -0.46875 L 1.226562 0 L 7.097656 0 L 7.097656 -0.46875 L 5.425781 -0.46875 L 5.425781 -12.253906 C 6.117188 -13.503906 7.277344 -14.351562 8.191406 -14.351562 C 8.414062 -14.351562 8.570312 -14.308594 8.617188 -14.285156 C 7.902344 -14.195312 7.367188 -13.546875 7.367188 -12.789062 C 7.367188 -11.898438 8.035156 -11.226562 8.929688 -11.226562 C 9.84375 -11.226562 10.511719 -11.941406 10.511719 -12.878906 C 10.511719 -13.996094 9.597656 -14.84375 8.347656 -14.84375 C 7.1875 -14.84375 6.050781 -14.039062 5.425781 -13.035156 Z M 5.425781 -14.640625 "/></g></g></g><g fill="#000000" fill-opacity="1"><g transform="translate(314.125694, 54.598702)"><g><path d="M 16.71875 0 L 16.71875 -0.46875 L 15.222656 -0.46875 L 15.222656 -8.082031 C 15.222656 -9.175781 15.042969 -10.246094 14.730469 -11.046875 C 13.816406 -13.304688 11.539062 -14.84375 8.996094 -14.84375 C 6.449219 -14.84375 4.175781 -13.304688 3.257812 -11.046875 C 2.945312 -10.246094 2.769531 -9.175781 2.769531 -8.082031 L 2.769531 -0.46875 L 1.226562 -0.46875 L 1.226562 0 L 6.917969 0 L 6.917969 -0.46875 L 5.425781 -0.46875 L 5.425781 -9.820312 C 5.425781 -12.679688 6.917969 -14.375 8.996094 -14.375 C 11.070312 -14.375 12.566406 -12.679688 12.566406 -9.820312 L 12.566406 -0.46875 L 11.070312 -0.46875 L 11.070312 0 Z M 16.71875 0 "/></g></g></g><g fill="#000000" fill-opacity="1"><g transform="translate(332.070101, 54.598702)"><g><path d="M 13.996094 -6.988281 L 13.996094 -8.011719 C 13.996094 -10.691406 13.28125 -12.054688 11.917969 -13.304688 C 10.847656 -14.285156 9.21875 -14.84375 7.789062 -14.84375 C 4.105469 -14.84375 1.5625 -12.074219 1.5625 -8.28125 L 1.5625 -6.496094 C 1.5625 -4.398438 2.03125 -3.011719 3.191406 -1.742188 C 4.285156 -0.558594 5.9375 0.222656 7.925781 0.222656 C 10.535156 0.222656 12.542969 -1.160156 13.75 -3.792969 L 13.324219 -3.996094 C 12.054688 -1.40625 10.335938 -0.246094 7.992188 -0.246094 C 6.25 -0.246094 5.15625 -1.070312 4.644531 -2.367188 C 4.261719 -3.324219 4.21875 -4.554688 4.21875 -6.207031 L 4.21875 -6.988281 Z M 11.359375 -7.457031 L 4.21875 -7.457031 L 4.21875 -9.195312 C 4.21875 -11.339844 4.574219 -12.433594 5.269531 -13.214844 C 5.914062 -13.949219 6.742188 -14.375 7.789062 -14.375 C 8.929688 -14.375 9.867188 -13.859375 10.445312 -13.058594 C 11.136719 -12.121094 11.359375 -11.117188 11.359375 -9.019531 Z M 11.359375 -7.457031 "/></g></g></g><g fill="#000000" fill-opacity="1"><g transform="translate(347.18001, 54.598702)"><g><path d="M 1.226562 -14.640625 L 1.226562 -14.171875 L 2.722656 -14.171875 L 2.722656 -6.519531 C 2.722656 -4.574219 3.257812 -3.035156 4.332031 -1.832031 C 5.402344 -0.625 7.074219 0.199219 8.816406 0.199219 C 10.402344 0.199219 11.828125 -0.691406 12.523438 -1.875 L 12.523438 5.894531 L 16.71875 5.894531 L 16.71875 5.425781 L 15.179688 5.425781 L 15.179688 -14.640625 L 11.027344 -14.640625 L 11.027344 -14.171875 L 12.523438 -14.171875 L 12.523438 -2.878906 C 11.851562 -1.226562 10.378906 -0.269531 8.929688 -0.269531 C 7.65625 -0.269531 6.761719 -0.960938 6.292969 -1.585938 C 5.402344 -2.789062 5.378906 -4.085938 5.378906 -5.757812 L 5.378906 -14.640625 Z M 1.226562 -14.640625 "/></g></g></g></svg>