<svg xmlns="http://www.w3.org/2000/svg" xmlns:xlink="http://www.w3.org/1999/xlink" width="500" zoomAndPan="magnify" viewBox="0 0 375 93.749996" height="125" preserveAspectRatio="xMidYMid meet" version="1.0"><defs><g/><clipPath id="cfd05680fd"><path d="M 17 28.050781 L 48 28.050781 L 48 72.183594 L 17 72.183594 Z M 17 28.050781 " clip-rule="nonzero"/></clipPath><clipPath id="b919392e0a"><path d="M 2.382812 41 L 23 41 L 23 52 L 2.382812 52 Z M 2.382812 41 " clip-rule="nonzero"/></clipPath><clipPath id="00019471c2"><path d="M 18 32 L 62.972656 32 L 62.972656 52 L 18 52 Z M 18 32 " clip-rule="nonzero"/></clipPath><clipPath id="4aa7024def"><path d="M 2.382812 50 L 5 50 L 5 53 L 2.382812 53 Z M 2.382812 50 " clip-rule="nonzero"/></clipPath><clipPath id="770777c6d2"><path d="M 61 50 L 62.972656 50 L 62.972656 53 L 61 53 Z M 61 50 " clip-rule="nonzero"/></clipPath></defs><path fill="#fab60d" d="M 25.40625 41.066406 L 25.417969 41.011719 L 25.398438 41.007812 Z M 25.40625 41.066406 " fill-opacity="1" fill-rule="nonzero"/><path fill="#fab60d" d="M 26.960938 41.269531 L 26.964844 41.214844 L 26.953125 41.214844 Z M 26.960938 41.269531 " fill-opacity="1" fill-rule="nonzero"/><path fill="#fab60d" d="M 26.585938 41.585938 L 26.683594 41.570312 L 26.628906 41.21875 Z M 26.585938 41.585938 " fill-opacity="1" fill-rule="nonzero"/><path fill="#fab60d" d="M 25.777344 41.539062 L 25.75 41.71875 L 25.929688 41.691406 L 25.910156 41.554688 L 25.777344 41.539062 " fill-opacity="1" fill-rule="nonzero"/><g clip-path="url(#cfd05680fd)"><path fill="#8c52ff" d="M 21.929688 39.179688 C 21.933594 39.183594 21.9375 39.1875 21.945312 39.191406 C 21.992188 39.21875 22.039062 39.25 22.085938 39.28125 C 22.15625 39.324219 22.226562 39.371094 22.300781 39.414062 C 22.347656 39.441406 22.398438 39.46875 22.445312 39.496094 C 22.523438 39.539062 22.597656 39.582031 22.671875 39.617188 L 22.679688 39.621094 C 22.753906 39.660156 22.832031 39.695312 22.910156 39.734375 C 23.664062 37.273438 24.066406 34.789062 24.105469 32.320312 C 24.125 31.050781 24.046875 29.785156 23.878906 28.527344 C 23.839844 28.253906 23.609375 28.050781 23.332031 28.050781 C 23 28.050781 22.742188 28.34375 22.785156 28.671875 C 22.964844 30.023438 23.046875 31.503906 22.972656 33.085938 L 22.886719 34.277344 C 22.738281 35.828125 22.4375 37.46875 21.929688 39.179688 Z M 47.328125 55.625 C 47.191406 52.242188 46.394531 48.820312 44.710938 44.492188 L 44.085938 44.414062 L 43.164062 44.308594 L 42.207031 44.207031 L 41.414062 44.132812 L 40.8125 44.078125 L 40.183594 44.023438 L 39.828125 43.992188 C 37.738281 44.417969 35.015625 44.828125 32.324219 44.828125 C 27.660156 44.828125 23.085938 43.652344 21.601562 43.230469 C 21.65625 43.101562 21.710938 42.972656 21.765625 42.84375 L 21.601562 42.875 L 21.054688 42.992188 L 20.46875 43.121094 L 20.460938 43.125 C 18.402344 48.117188 17.449219 51.894531 17.296875 55.625 C 17.113281 60.082031 18.050781 64.625 20.34375 70.351562 C 20.429688 70.566406 20.632812 70.695312 20.851562 70.695312 C 20.917969 70.695312 20.988281 70.683594 21.054688 70.65625 C 21.335938 70.542969 21.472656 70.226562 21.359375 69.949219 C 17.800781 61.046875 17.65625 55.164062 19.625 48.617188 C 21.625 49.707031 29.066406 54.019531 31.777344 59.160156 L 31.777344 71.636719 C 31.777344 71.9375 32.023438 72.179688 32.324219 72.179688 C 32.628906 72.179688 32.871094 71.9375 32.871094 71.636719 L 32.871094 59.160156 C 35.570312 54.042969 42.96875 49.738281 45.003906 48.628906 C 46.96875 55.171875 46.820312 61.050781 43.265625 69.949219 C 43.152344 70.226562 43.289062 70.542969 43.570312 70.65625 C 43.636719 70.683594 43.707031 70.695312 43.773438 70.695312 C 43.992188 70.695312 44.195312 70.566406 44.28125 70.351562 C 46.570312 64.625 47.511719 60.082031 47.328125 55.625 Z M 41.992188 39.84375 L 41.992188 39.847656 L 41.792969 39.871094 L 41.757812 39.875 C 41.972656 40.550781 42.207031 41.226562 42.472656 41.898438 C 42.894531 41.941406 43.304688 41.984375 43.707031 42.027344 C 43.378906 41.242188 43.097656 40.464844 42.855469 39.707031 L 42.828125 39.710938 L 42.773438 39.722656 L 42.773438 39.726562 L 42.625 39.75 L 42.367188 39.800781 L 42.363281 39.792969 C 42.324219 39.796875 42.242188 39.8125 42.164062 39.820312 Z M 41.164062 37.667969 C 41.554688 37.625 41.921875 37.582031 42.261719 37.519531 C 42 36.375 41.828125 35.261719 41.730469 34.195312 L 41.726562 34.195312 L 41.730469 34.183594 C 41.542969 32.179688 41.617188 30.332031 41.835938 28.671875 C 41.882812 28.34375 41.625 28.050781 41.292969 28.050781 C 41.015625 28.050781 40.78125 28.253906 40.746094 28.527344 C 40.578125 29.785156 40.5 31.050781 40.519531 32.320312 C 40.546875 34.097656 40.765625 35.886719 41.164062 37.667969 " fill-opacity="1" fill-rule="nonzero"/></g><g clip-path="url(#b919392e0a)"><path fill="#fab60d" d="M 22.097656 41.921875 C 22.003906 41.882812 21.90625 41.835938 21.871094 41.820312 L 21.863281 41.835938 L 21.066406 41.390625 L 21.054688 41.382812 L 20.726562 41.199219 L 20.738281 41.183594 L 20.699219 41.15625 C 19.199219 41.480469 17.730469 41.847656 16.324219 42.265625 C 15.964844 42.371094 15.609375 42.476562 15.261719 42.589844 C 14.910156 42.699219 14.566406 42.808594 14.222656 42.929688 C 13.542969 43.160156 12.878906 43.402344 12.242188 43.65625 C 11.601562 43.910156 10.984375 44.171875 10.394531 44.4375 C 9.808594 44.707031 9.238281 44.980469 8.703125 45.269531 C 8.167969 45.558594 7.660156 45.851562 7.191406 46.160156 C 6.957031 46.308594 6.734375 46.46875 6.515625 46.621094 C 6.40625 46.699219 6.304688 46.78125 6.199219 46.855469 C 6.097656 46.9375 5.992188 47.007812 5.894531 47.089844 C 5.109375 47.722656 4.484375 48.363281 4.019531 48.9375 C 3.964844 49.011719 3.90625 49.082031 3.855469 49.148438 C 3.800781 49.21875 3.746094 49.285156 3.699219 49.355469 C 3.605469 49.492188 3.519531 49.617188 3.4375 49.734375 C 3.355469 49.855469 3.289062 49.972656 3.226562 50.078125 C 3.164062 50.183594 3.105469 50.277344 3.058594 50.363281 C 2.875 50.722656 2.78125 50.914062 2.78125 50.914062 L 4.132812 51.535156 L 4.371094 51.0625 L 3.546875 50.613281 C 3.546875 50.613281 3.558594 50.59375 3.574219 50.566406 C 3.589844 50.539062 3.609375 50.503906 3.632812 50.46875 C 3.671875 50.398438 3.714844 50.328125 3.714844 50.328125 L 4.523438 50.808594 C 4.523438 50.808594 4.570312 50.730469 4.621094 50.648438 C 4.644531 50.605469 4.671875 50.566406 4.691406 50.535156 C 4.710938 50.507812 4.726562 50.488281 4.726562 50.488281 L 4.3125 50.214844 L 4.492188 49.957031 L 4.894531 50.246094 C 4.894531 50.246094 4.910156 50.226562 4.929688 50.195312 C 4.949219 50.160156 4.980469 50.121094 5.015625 50.082031 C 5.078125 50 5.140625 49.921875 5.140625 49.921875 L 4.402344 49.339844 C 4.402344 49.339844 4.453125 49.273438 4.503906 49.210938 C 4.53125 49.179688 4.554688 49.148438 4.574219 49.121094 C 4.59375 49.101562 4.609375 49.085938 4.609375 49.085938 L 5.328125 49.691406 L 5.585938 49.402344 L 5.21875 49.070312 C 5.21875 49.070312 5.234375 49.054688 5.253906 49.03125 C 5.273438 49.007812 5.296875 48.980469 5.324219 48.953125 C 5.382812 48.894531 5.4375 48.839844 5.4375 48.839844 L 5.792969 49.183594 C 5.792969 49.183594 5.863281 49.113281 5.9375 49.039062 C 5.972656 49 6.011719 48.964844 6.039062 48.9375 C 6.066406 48.910156 6.085938 48.894531 6.085938 48.894531 L 5.4375 48.214844 L 5.679688 47.992188 L 6.308594 48.691406 C 6.308594 48.691406 6.382812 48.625 6.453125 48.558594 C 6.53125 48.496094 6.605469 48.433594 6.605469 48.433594 L 6.285156 48.054688 L 6.53125 47.855469 L 6.839844 48.238281 C 6.839844 48.238281 6.859375 48.222656 6.890625 48.199219 C 6.921875 48.175781 6.964844 48.144531 7.003906 48.109375 C 7.089844 48.046875 7.171875 47.984375 7.171875 47.984375 L 6.609375 47.234375 C 6.609375 47.234375 6.671875 47.1875 6.738281 47.136719 C 6.769531 47.113281 6.804688 47.085938 6.828125 47.070312 C 6.851562 47.054688 6.871094 47.042969 6.871094 47.042969 L 7.417969 47.804688 L 7.746094 47.574219 L 7.464844 47.167969 C 7.464844 47.167969 7.53125 47.121094 7.597656 47.078125 C 7.664062 47.035156 7.730469 46.992188 7.730469 46.992188 L 8.003906 47.40625 C 8.003906 47.40625 8.089844 47.347656 8.179688 47.292969 C 8.269531 47.234375 8.359375 47.179688 8.359375 47.179688 L 7.867188 46.378906 L 8.144531 46.214844 L 8.625 47.019531 C 8.625 47.019531 8.710938 46.96875 8.796875 46.914062 C 8.886719 46.867188 8.972656 46.816406 8.972656 46.816406 L 8.730469 46.386719 L 9.007812 46.230469 L 9.246094 46.664062 C 9.246094 46.664062 9.269531 46.652344 9.304688 46.632812 C 9.339844 46.613281 9.386719 46.589844 9.433594 46.5625 C 9.53125 46.515625 9.625 46.464844 9.625 46.464844 L 9.1875 45.632812 C 9.1875 45.632812 9.257812 45.597656 9.332031 45.558594 C 9.402344 45.519531 9.476562 45.484375 9.476562 45.484375 L 9.902344 46.320312 L 10.265625 46.140625 L 10.046875 45.695312 C 10.046875 45.695312 10.121094 45.660156 10.191406 45.628906 C 10.265625 45.59375 10.335938 45.558594 10.335938 45.558594 L 10.546875 46.003906 C 10.546875 46.003906 10.644531 45.960938 10.742188 45.914062 C 10.84375 45.867188 10.941406 45.824219 10.941406 45.824219 L 10.550781 44.96875 L 10.84375 44.835938 L 11.230469 45.691406 L 11.601562 45.527344 L 11.40625 45.074219 L 11.699219 44.949219 L 11.894531 45.402344 L 12.296875 45.234375 L 11.9375 44.371094 L 12.238281 44.25 L 12.589844 45.117188 L 12.96875 44.96875 L 12.789062 44.507812 L 13.089844 44.390625 L 13.265625 44.851562 L 13.675781 44.699219 L 13.347656 43.820312 L 13.652344 43.710938 L 13.972656 44.589844 L 14.359375 44.453125 L 14.195312 43.988281 L 14.496094 43.882812 L 14.65625 44.351562 L 15.070312 44.210938 L 14.773438 43.320312 C 14.773438 43.320312 14.851562 43.296875 14.925781 43.269531 C 15.003906 43.246094 15.082031 43.222656 15.082031 43.222656 L 15.375 44.113281 L 15.765625 43.988281 L 15.613281 43.515625 L 15.921875 43.417969 L 16.066406 43.890625 L 16.488281 43.765625 L 16.214844 42.867188 L 16.527344 42.773438 L 16.792969 43.675781 C 16.792969 43.675781 16.890625 43.644531 16.988281 43.617188 C 17.085938 43.589844 17.1875 43.558594 17.1875 43.558594 L 17.050781 43.085938 L 17.359375 43 L 17.492188 43.472656 C 17.492188 43.472656 17.597656 43.445312 17.703125 43.414062 C 17.808594 43.386719 17.914062 43.359375 17.914062 43.359375 L 17.667969 42.453125 L 17.980469 42.371094 L 18.222656 43.277344 L 18.621094 43.171875 L 18.496094 42.695312 L 18.808594 42.617188 L 18.929688 43.09375 L 19.355469 42.988281 L 19.132812 42.078125 C 19.132812 42.078125 19.210938 42.058594 19.289062 42.039062 C 19.367188 42.019531 19.445312 42 19.445312 42 L 19.664062 42.914062 L 20.066406 42.820312 L 19.953125 42.339844 L 20.265625 42.265625 L 20.378906 42.746094 L 20.804688 42.652344 L 20.601562 41.738281 L 20.917969 41.667969 L 21.117188 42.585938 L 21.519531 42.5 L 21.417969 42.015625 L 21.734375 41.949219 L 21.835938 42.433594 L 22.265625 42.34375 L 22.1875 41.960938 Z M 22.679688 42.160156 L 22.675781 42.171875 L 22.546875 42.117188 L 22.578125 42.285156 L 22.867188 42.230469 C 22.78125 42.199219 22.707031 42.167969 22.679688 42.160156 " fill-opacity="1" fill-rule="nonzero"/></g><g clip-path="url(#00019471c2)"><path fill="#fab60d" d="M 22.761719 33.914062 L 22.417969 32.394531 C 22.417969 32.394531 22.257812 32.433594 22.089844 32.476562 C 21.925781 32.519531 21.761719 32.574219 21.761719 32.574219 L 22.066406 33.507812 C 22.066406 33.507812 21.988281 33.535156 21.914062 33.558594 C 21.875 33.574219 21.835938 33.589844 21.808594 33.597656 C 21.78125 33.609375 21.761719 33.617188 21.761719 33.617188 L 21.390625 32.707031 C 21.390625 32.707031 21.363281 32.722656 21.316406 32.738281 C 21.273438 32.757812 21.214844 32.785156 21.15625 32.8125 C 21.097656 32.839844 21.039062 32.867188 20.992188 32.890625 C 20.949219 32.914062 20.921875 32.929688 20.921875 32.929688 L 21.167969 33.382812 C 21.167969 33.382812 21.085938 33.425781 21.007812 33.472656 C 20.96875 33.496094 20.933594 33.519531 20.902344 33.539062 C 20.875 33.554688 20.855469 33.570312 20.855469 33.570312 L 20.566406 33.140625 C 20.566406 33.140625 20.535156 33.160156 20.492188 33.191406 C 20.445312 33.222656 20.390625 33.265625 20.332031 33.3125 C 20.273438 33.355469 20.21875 33.402344 20.175781 33.4375 C 20.136719 33.472656 20.109375 33.5 20.109375 33.5 L 20.773438 34.222656 C 20.773438 34.222656 20.761719 34.234375 20.738281 34.253906 C 20.71875 34.277344 20.6875 34.300781 20.664062 34.332031 C 20.636719 34.359375 20.609375 34.386719 20.589844 34.410156 C 20.570312 34.433594 20.558594 34.445312 20.558594 34.445312 L 19.8125 33.804688 C 19.8125 33.804688 19.792969 33.832031 19.757812 33.867188 C 19.726562 33.90625 19.683594 33.957031 19.644531 34.011719 C 19.601562 34.066406 19.5625 34.121094 19.535156 34.164062 C 19.503906 34.203125 19.488281 34.234375 19.488281 34.234375 L 19.921875 34.515625 C 19.921875 34.515625 19.910156 34.535156 19.890625 34.566406 C 19.871094 34.59375 19.84375 34.628906 19.824219 34.671875 C 19.78125 34.75 19.734375 34.828125 19.734375 34.828125 L 19.277344 34.589844 C 19.277344 34.589844 19.210938 34.714844 19.152344 34.84375 C 19.125 34.910156 19.097656 34.976562 19.078125 35.023438 C 19.070312 35.050781 19.0625 35.070312 19.054688 35.082031 C 19.050781 35.097656 19.046875 35.105469 19.046875 35.105469 L 19.972656 35.441406 C 19.972656 35.441406 19.949219 35.515625 19.921875 35.59375 C 19.898438 35.667969 19.878906 35.746094 19.878906 35.746094 L 18.925781 35.496094 C 18.925781 35.496094 18.914062 35.527344 18.90625 35.574219 C 18.894531 35.621094 18.878906 35.6875 18.867188 35.75 C 18.839844 35.878906 18.820312 36.007812 18.820312 36.007812 L 19.335938 36.082031 C 19.335938 36.082031 19.332031 36.101562 19.328125 36.136719 C 19.324219 36.167969 19.316406 36.214844 19.3125 36.257812 C 19.304688 36.304688 19.304688 36.347656 19.300781 36.382812 C 19.300781 36.414062 19.296875 36.4375 19.296875 36.4375 L 18.78125 36.402344 C 18.78125 36.402344 18.777344 36.4375 18.773438 36.488281 C 18.773438 36.542969 18.773438 36.609375 18.769531 36.679688 C 18.769531 36.746094 18.769531 36.816406 18.773438 36.867188 C 18.773438 36.917969 18.777344 36.949219 18.777344 36.949219 L 19.757812 36.90625 C 19.757812 36.90625 19.761719 36.925781 19.761719 36.957031 C 19.761719 36.984375 19.765625 37.027344 19.769531 37.066406 C 19.773438 37.144531 19.785156 37.226562 19.785156 37.226562 L 18.808594 37.34375 C 18.808594 37.34375 18.8125 37.378906 18.820312 37.425781 C 18.824219 37.472656 18.835938 37.535156 18.847656 37.597656 C 18.867188 37.722656 18.898438 37.847656 18.898438 37.847656 L 19.402344 37.734375 C 19.402344 37.734375 19.40625 37.757812 19.414062 37.789062 C 19.421875 37.820312 19.433594 37.867188 19.445312 37.90625 C 19.457031 37.949219 19.46875 37.992188 19.476562 38.027344 C 19.488281 38.058594 19.492188 38.078125 19.492188 38.078125 L 18.996094 38.230469 C 18.996094 38.230469 19.007812 38.261719 19.023438 38.3125 C 19.039062 38.359375 19.058594 38.425781 19.085938 38.488281 C 19.109375 38.550781 19.132812 38.613281 19.152344 38.664062 C 19.171875 38.710938 19.183594 38.742188 19.183594 38.742188 L 20.089844 38.359375 C 20.089844 38.359375 20.125 38.433594 20.15625 38.503906 C 20.191406 38.574219 20.226562 38.648438 20.226562 38.648438 L 19.355469 39.101562 C 19.355469 39.101562 19.367188 39.128906 19.390625 39.171875 C 19.414062 39.214844 19.445312 39.269531 19.480469 39.324219 C 19.546875 39.433594 19.617188 39.542969 19.617188 39.542969 L 20.046875 39.261719 C 20.046875 39.261719 20.101562 39.332031 20.152344 39.40625 C 20.175781 39.445312 20.203125 39.480469 20.226562 39.503906 C 20.246094 39.53125 20.261719 39.550781 20.261719 39.550781 L 19.851562 39.871094 C 19.851562 39.871094 19.875 39.898438 19.90625 39.9375 C 19.941406 39.976562 19.988281 40.03125 20.03125 40.082031 C 20.078125 40.136719 20.128906 40.1875 20.164062 40.222656 C 20.203125 40.261719 20.226562 40.285156 20.226562 40.285156 L 20.917969 39.589844 C 20.917969 39.589844 20.929688 39.605469 20.953125 39.625 C 20.976562 39.644531 21.003906 39.667969 21.035156 39.695312 C 21.0625 39.722656 21.09375 39.75 21.117188 39.769531 C 21.140625 39.785156 21.15625 39.800781 21.15625 39.800781 L 20.53125 40.558594 C 20.53125 40.558594 20.632812 40.644531 20.746094 40.722656 C 20.800781 40.761719 20.855469 40.800781 20.890625 40.820312 C 20.925781 40.84375 20.953125 40.859375 20.953125 40.859375 L 21.238281 40.429688 L 21.53125 40.613281 L 21.265625 41.058594 L 21.707031 41.304688 L 22.164062 40.4375 L 22.460938 40.582031 L 22.035156 41.46875 C 22.035156 41.46875 22.140625 41.523438 22.25 41.566406 C 22.359375 41.613281 22.46875 41.660156 22.46875 41.660156 L 22.667969 41.183594 C 22.667969 41.183594 22.6875 41.195312 22.71875 41.207031 C 22.75 41.21875 22.789062 41.234375 22.828125 41.25 C 22.910156 41.28125 22.992188 41.3125 22.992188 41.3125 L 22.808594 41.796875 C 22.808594 41.796875 22.925781 41.839844 23.042969 41.882812 C 23.164062 41.921875 23.28125 41.960938 23.28125 41.960938 L 23.585938 41.027344 C 23.585938 41.027344 23.664062 41.054688 23.742188 41.078125 C 23.820312 41.101562 23.902344 41.125 23.902344 41.125 L 23.628906 42.066406 C 23.628906 42.066406 23.742188 42.097656 23.851562 42.128906 C 23.910156 42.144531 23.964844 42.160156 24.007812 42.167969 C 24.050781 42.179688 24.078125 42.1875 24.078125 42.1875 L 24.203125 41.683594 C 24.203125 41.683594 24.285156 41.707031 24.371094 41.726562 C 24.453125 41.746094 24.539062 41.765625 24.539062 41.765625 L 24.425781 42.269531 C 24.425781 42.269531 24.546875 42.292969 24.667969 42.320312 C 24.785156 42.34375 24.90625 42.367188 24.90625 42.367188 L 25.085938 41.402344 L 25.417969 41.460938 L 25.253906 42.429688 L 25.703125 42.496094 L 25.777344 41.984375 L 26.113281 42.03125 L 26.046875 42.542969 C 26.046875 42.542969 26.167969 42.558594 26.285156 42.574219 C 26.402344 42.585938 26.519531 42.601562 26.519531 42.601562 L 26.632812 41.625 L 26.964844 41.664062 L 26.863281 42.636719 L 27.300781 42.683594 L 27.351562 42.167969 L 27.691406 42.199219 L 27.640625 42.714844 L 28.105469 42.757812 L 28.195312 41.78125 L 28.53125 41.8125 L 28.445312 42.789062 L 28.882812 42.828125 L 28.925781 42.3125 L 29.261719 42.339844 L 29.21875 42.855469 L 29.683594 42.894531 L 29.765625 41.917969 L 30.101562 41.945312 L 30.023438 42.921875 L 30.460938 42.957031 L 30.5 42.441406 L 30.835938 42.464844 L 30.796875 42.980469 L 31.261719 43.015625 L 31.332031 42.035156 L 31.671875 42.0625 L 31.601562 43.039062 L 32.035156 43.070312 L 32.074219 42.554688 L 32.410156 42.578125 L 32.375 43.09375 L 32.839844 43.125 L 32.90625 42.148438 L 33.242188 42.167969 L 33.175781 43.148438 L 33.613281 43.175781 L 33.648438 42.660156 L 33.984375 42.683594 L 33.949219 43.199219 L 34.414062 43.230469 L 34.476562 42.25 L 34.8125 42.269531 L 34.75 43.25 L 35.183594 43.277344 L 35.21875 42.761719 L 35.554688 42.785156 L 35.523438 43.300781 L 35.984375 43.332031 L 36.050781 42.351562 L 36.386719 42.375 L 36.320312 43.351562 L 36.757812 43.382812 L 36.792969 42.867188 L 37.128906 42.890625 L 37.09375 43.40625 L 37.554688 43.4375 L 37.625 42.457031 L 37.960938 42.480469 L 37.890625 43.460938 L 38.324219 43.492188 L 38.363281 42.976562 L 38.699219 43 L 38.660156 43.515625 L 39.121094 43.550781 L 39.195312 42.574219 L 39.535156 42.597656 L 39.457031 43.578125 L 39.890625 43.613281 L 39.929688 43.097656 L 40.265625 43.125 L 40.222656 43.640625 L 40.683594 43.679688 L 40.769531 42.703125 L 41.105469 42.730469 L 41.019531 43.707031 L 41.449219 43.746094 L 41.496094 43.230469 L 41.832031 43.265625 L 41.785156 43.777344 L 42.242188 43.824219 L 42.339844 42.847656 L 42.679688 42.882812 L 42.578125 43.855469 L 43.007812 43.902344 L 43.0625 43.386719 L 43.398438 43.425781 L 43.339844 43.9375 L 43.796875 43.992188 L 43.910156 43.015625 L 44.246094 43.054688 L 44.128906 44.027344 L 44.558594 44.082031 L 44.625 43.570312 L 44.957031 43.613281 L 44.890625 44.125 C 44.890625 44.125 45.003906 44.140625 45.117188 44.152344 C 45.234375 44.167969 45.347656 44.183594 45.347656 44.183594 L 45.480469 43.214844 L 45.816406 43.257812 L 45.675781 44.230469 C 45.675781 44.230469 45.785156 44.246094 45.890625 44.261719 C 45.996094 44.277344 46.105469 44.292969 46.105469 44.292969 L 46.179688 43.78125 L 46.511719 43.832031 L 46.433594 44.339844 L 46.890625 44.410156 L 47.042969 43.441406 L 47.378906 43.496094 L 47.21875 44.464844 L 47.644531 44.535156 L 47.730469 44.027344 C 47.730469 44.027344 47.8125 44.039062 47.894531 44.054688 C 47.980469 44.066406 48.0625 44.082031 48.0625 44.082031 L 47.972656 44.589844 L 48.421875 44.671875 L 48.601562 43.710938 L 48.933594 43.769531 L 48.75 44.734375 L 49.171875 44.816406 L 49.273438 44.308594 L 49.601562 44.375 L 49.496094 44.882812 C 49.496094 44.882812 49.609375 44.90625 49.722656 44.925781 C 49.835938 44.953125 49.945312 44.976562 49.945312 44.976562 L 50.152344 44.015625 L 50.484375 44.089844 L 50.269531 45.046875 C 50.269531 45.046875 50.375 45.070312 50.480469 45.09375 C 50.585938 45.117188 50.691406 45.140625 50.691406 45.140625 L 50.808594 44.636719 L 51.132812 44.710938 L 51.011719 45.214844 L 51.457031 45.324219 L 51.695312 44.371094 L 52.023438 44.453125 L 51.777344 45.402344 L 52.1875 45.511719 L 52.324219 45.015625 L 52.648438 45.105469 L 52.507812 45.601562 C 52.507812 45.601562 52.617188 45.632812 52.722656 45.664062 C 52.832031 45.695312 52.941406 45.726562 52.941406 45.726562 L 53.222656 44.785156 L 53.550781 44.886719 L 53.257812 45.824219 C 53.257812 45.824219 53.359375 45.851562 53.457031 45.886719 C 53.558594 45.917969 53.660156 45.953125 53.660156 45.953125 L 53.820312 45.460938 C 53.820312 45.460938 53.902344 45.488281 53.980469 45.511719 C 54.058594 45.539062 54.136719 45.566406 54.136719 45.566406 L 53.96875 46.054688 C 53.96875 46.054688 54.078125 46.09375 54.183594 46.128906 C 54.289062 46.167969 54.394531 46.207031 54.394531 46.207031 L 54.730469 45.285156 C 54.730469 45.285156 54.8125 45.3125 54.890625 45.339844 C 54.972656 45.371094 55.050781 45.402344 55.050781 45.402344 L 54.699219 46.320312 C 54.699219 46.320312 54.796875 46.355469 54.898438 46.394531 C 54.992188 46.433594 55.089844 46.472656 55.089844 46.472656 L 55.285156 45.992188 C 55.285156 45.992188 55.363281 46.023438 55.441406 46.054688 C 55.519531 46.085938 55.59375 46.121094 55.59375 46.121094 L 55.390625 46.59375 C 55.390625 46.59375 55.496094 46.640625 55.597656 46.683594 C 55.699219 46.726562 55.800781 46.773438 55.800781 46.773438 L 56.207031 45.878906 L 56.515625 46.023438 L 56.09375 46.910156 L 56.46875 47.089844 L 56.703125 46.628906 L 56.996094 46.78125 L 56.753906 47.238281 C 56.753906 47.238281 56.777344 47.253906 56.8125 47.269531 C 56.851562 47.289062 56.898438 47.316406 56.945312 47.34375 C 57.042969 47.398438 57.140625 47.449219 57.140625 47.449219 L 57.628906 46.597656 L 57.921875 46.773438 L 57.414062 47.613281 C 57.414062 47.613281 57.503906 47.664062 57.589844 47.71875 C 57.675781 47.773438 57.761719 47.828125 57.761719 47.828125 L 58.046875 47.394531 C 58.046875 47.394531 58.117188 47.4375 58.183594 47.484375 C 58.253906 47.53125 58.320312 47.578125 58.320312 47.578125 L 58.027344 48.003906 C 58.027344 48.003906 58.050781 48.019531 58.082031 48.042969 C 58.117188 48.066406 58.164062 48.097656 58.207031 48.128906 C 58.292969 48.191406 58.382812 48.257812 58.382812 48.257812 L 58.96875 47.46875 C 58.96875 47.46875 59.039062 47.519531 59.105469 47.570312 C 59.171875 47.625 59.242188 47.675781 59.242188 47.675781 L 58.632812 48.445312 C 58.632812 48.445312 58.710938 48.507812 58.792969 48.570312 C 58.871094 48.636719 58.945312 48.703125 58.945312 48.703125 L 59.28125 48.308594 C 59.28125 48.308594 59.347656 48.363281 59.410156 48.414062 C 59.46875 48.46875 59.53125 48.527344 59.53125 48.527344 L 59.183594 48.910156 C 59.183594 48.910156 59.261719 48.980469 59.339844 49.054688 C 59.378906 49.089844 59.414062 49.128906 59.445312 49.15625 C 59.472656 49.183594 59.492188 49.203125 59.492188 49.203125 L 60.1875 48.507812 C 60.1875 48.507812 60.246094 48.566406 60.308594 48.628906 C 60.339844 48.660156 60.367188 48.691406 60.390625 48.714844 C 60.414062 48.738281 60.425781 48.753906 60.425781 48.753906 L 59.710938 49.425781 C 59.710938 49.425781 59.777344 49.5 59.84375 49.570312 C 59.878906 49.609375 59.914062 49.644531 59.9375 49.675781 C 59.960938 49.703125 59.976562 49.722656 59.976562 49.722656 L 60.371094 49.386719 C 60.371094 49.386719 60.421875 49.449219 60.476562 49.511719 C 60.503906 49.542969 60.527344 49.574219 60.546875 49.597656 C 60.566406 49.621094 60.578125 49.636719 60.578125 49.636719 L 60.171875 49.957031 C 60.171875 49.957031 60.238281 50.042969 60.300781 50.125 C 60.367188 50.210938 60.425781 50.296875 60.425781 50.296875 L 61.230469 49.726562 C 61.230469 49.726562 61.277344 49.796875 61.328125 49.871094 C 61.351562 49.90625 61.378906 49.9375 61.394531 49.964844 C 61.414062 49.992188 61.425781 50.011719 61.425781 50.011719 L 60.601562 50.546875 C 60.601562 50.546875 60.652344 50.632812 60.707031 50.714844 C 60.734375 50.757812 60.757812 50.800781 60.777344 50.832031 C 60.800781 50.863281 60.808594 50.882812 60.808594 50.882812 L 61.257812 50.625 L 61.417969 50.90625 L 60.960938 51.152344 C 60.960938 51.152344 60.972656 51.175781 60.992188 51.210938 C 61.011719 51.25 61.035156 51.300781 61.058594 51.347656 C 61.109375 51.449219 61.160156 51.546875 61.160156 51.546875 L 62.574219 50.898438 C 62.574219 50.898438 62.550781 50.847656 62.503906 50.75 C 62.453125 50.65625 62.386719 50.507812 62.28125 50.324219 C 62.082031 49.957031 61.761719 49.429688 61.261719 48.828125 C 60.765625 48.230469 60.085938 47.566406 59.222656 46.941406 C 58.359375 46.316406 57.316406 45.730469 56.136719 45.226562 C 54.960938 44.714844 53.648438 44.285156 52.253906 43.921875 C 50.855469 43.558594 49.378906 43.253906 47.839844 42.992188 C 44.757812 42.46875 41.453125 42.15625 38.160156 41.921875 C 34.867188 41.6875 31.585938 41.515625 28.535156 41.238281 C 27.769531 41.167969 27.015625 41.101562 26.300781 41.011719 C 25.589844 40.917969 24.90625 40.800781 24.269531 40.632812 C 23.632812 40.460938 23.039062 40.238281 22.503906 39.964844 C 22.367188 39.898438 22.238281 39.820312 22.109375 39.75 C 21.980469 39.675781 21.859375 39.59375 21.734375 39.515625 C 21.523438 39.375 21.34375 39.210938 21.179688 39.027344 C 20.855469 38.660156 20.625 38.222656 20.492188 37.78125 C 20.355469 37.339844 20.308594 36.894531 20.335938 36.488281 C 20.386719 35.671875 20.742188 35.050781 21.125 34.683594 C 21.503906 34.320312 21.949219 34.148438 22.257812 34.046875 C 22.417969 33.996094 22.542969 33.964844 22.628906 33.941406 C 22.714844 33.921875 22.761719 33.914062 22.761719 33.914062 " fill-opacity="1" fill-rule="nonzero"/></g><path fill="#fab60d" d="M 45.882812 36.09375 C 45.878906 36.023438 45.867188 35.957031 45.859375 35.90625 C 45.855469 35.851562 45.847656 35.820312 45.847656 35.820312 L 45.359375 35.90625 C 45.359375 35.90625 45.355469 35.882812 45.347656 35.851562 C 45.339844 35.816406 45.332031 35.773438 45.320312 35.730469 C 45.300781 35.644531 45.273438 35.558594 45.273438 35.558594 L 45.742188 35.410156 C 45.742188 35.410156 45.734375 35.375 45.714844 35.324219 C 45.695312 35.273438 45.671875 35.203125 45.644531 35.140625 C 45.589844 35.007812 45.519531 34.882812 45.519531 34.882812 L 44.6875 35.320312 C 44.6875 35.320312 44.679688 35.304688 44.667969 35.277344 C 44.652344 35.253906 44.632812 35.222656 44.613281 35.191406 C 44.597656 35.15625 44.574219 35.125 44.558594 35.101562 C 44.542969 35.078125 44.535156 35.0625 44.535156 35.0625 L 45.3125 34.535156 C 45.3125 34.535156 45.292969 34.507812 45.265625 34.46875 C 45.238281 34.429688 45.199219 34.378906 45.160156 34.328125 C 45.117188 34.277344 45.078125 34.230469 45.046875 34.191406 C 45.015625 34.15625 44.992188 34.132812 44.992188 34.132812 L 44.625 34.460938 C 44.625 34.460938 44.609375 34.445312 44.585938 34.421875 C 44.566406 34.398438 44.535156 34.367188 44.507812 34.335938 C 44.445312 34.273438 44.382812 34.21875 44.382812 34.21875 L 44.722656 33.859375 C 44.722656 33.859375 44.699219 33.835938 44.664062 33.800781 C 44.628906 33.769531 44.578125 33.726562 44.527344 33.683594 C 44.429688 33.601562 44.328125 33.523438 44.328125 33.523438 L 43.753906 34.265625 C 43.753906 34.265625 43.691406 34.21875 43.628906 34.175781 C 43.566406 34.128906 43.503906 34.085938 43.503906 34.085938 L 44.03125 33.308594 C 44.03125 33.308594 43.933594 33.242188 43.832031 33.183594 C 43.734375 33.121094 43.636719 33.0625 43.636719 33.0625 L 43.386719 33.488281 C 43.386719 33.488281 43.3125 33.445312 43.242188 33.40625 C 43.167969 33.367188 43.09375 33.328125 43.09375 33.328125 L 43.324219 32.890625 C 43.324219 32.890625 43.214844 32.832031 43.101562 32.777344 C 42.988281 32.722656 42.875 32.667969 42.875 32.667969 L 42.238281 34.011719 C 42.238281 34.011719 42.28125 34.03125 42.363281 34.070312 C 42.441406 34.109375 42.558594 34.167969 42.707031 34.246094 C 42.996094 34.40625 43.417969 34.648438 43.8125 35.046875 C 43.996094 35.238281 44.171875 35.472656 44.28125 35.746094 C 44.390625 36.015625 44.433594 36.320312 44.367188 36.609375 C 44.300781 36.898438 44.121094 37.171875 43.8125 37.386719 C 43.734375 37.441406 43.652344 37.492188 43.5625 37.535156 C 43.515625 37.558594 43.46875 37.578125 43.417969 37.601562 C 43.371094 37.621094 43.308594 37.640625 43.253906 37.660156 C 43.023438 37.742188 42.78125 37.808594 42.519531 37.863281 C 41.996094 37.972656 41.410156 38.03125 40.769531 38.097656 C 40.609375 38.113281 40.445312 38.132812 40.28125 38.152344 C 40.195312 38.160156 40.113281 38.171875 40.027344 38.183594 C 39.945312 38.195312 39.863281 38.207031 39.78125 38.21875 C 39.449219 38.265625 39.117188 38.320312 38.78125 38.371094 C 38.109375 38.480469 37.429688 38.59375 36.742188 38.691406 C 36.039062 38.785156 35.320312 38.882812 34.59375 38.980469 C 33.132812 39.175781 31.621094 39.375 30.085938 39.582031 C 29.320312 39.683594 28.546875 39.792969 27.769531 39.90625 C 26.988281 40.019531 26.207031 40.140625 25.429688 40.265625 C 25.273438 40.292969 25.113281 40.320312 24.957031 40.34375 C 25.390625 40.433594 25.839844 40.503906 26.300781 40.5625 C 26.445312 40.582031 26.59375 40.597656 26.738281 40.613281 L 26.855469 40.59375 L 26.863281 40.628906 C 27.257812 40.671875 27.664062 40.710938 28.078125 40.746094 L 28.027344 40.421875 L 28.347656 40.375 L 28.40625 40.777344 C 28.449219 40.78125 28.492188 40.785156 28.535156 40.789062 C 28.632812 40.800781 28.734375 40.808594 28.832031 40.816406 L 28.824219 40.753906 L 29.144531 40.710938 L 29.164062 40.84375 C 29.3125 40.859375 29.464844 40.871094 29.617188 40.882812 L 29.519531 40.210938 L 29.839844 40.167969 L 29.945312 40.910156 C 30.085938 40.921875 30.226562 40.933594 30.371094 40.941406 L 30.316406 40.550781 L 30.636719 40.507812 L 30.699219 40.96875 C 30.746094 40.972656 30.792969 40.976562 30.839844 40.980469 L 31.144531 40.9375 L 31.015625 40.011719 L 31.332031 39.96875 L 31.464844 40.894531 L 31.875 40.839844 L 31.808594 40.351562 L 32.128906 40.308594 L 32.195312 40.796875 L 32.636719 40.738281 L 32.507812 39.8125 L 32.828125 39.769531 L 32.957031 40.695312 L 33.371094 40.640625 L 33.300781 40.152344 L 33.621094 40.109375 L 33.6875 40.597656 L 34.128906 40.539062 L 34 39.613281 L 34.320312 39.570312 L 34.449219 40.496094 L 34.863281 40.441406 L 34.792969 39.953125 L 35.113281 39.910156 L 35.179688 40.398438 L 35.621094 40.339844 L 35.492188 39.414062 L 35.8125 39.371094 L 35.941406 40.296875 L 36.355469 40.242188 L 36.285156 39.753906 L 36.605469 39.710938 L 36.675781 40.199219 L 37.117188 40.136719 L 36.984375 39.210938 L 37.300781 39.164062 L 37.441406 40.089844 L 37.859375 40.023438 L 37.78125 39.539062 L 38.101562 39.488281 L 38.179688 39.972656 L 38.617188 39.902344 L 38.46875 38.976562 L 38.785156 38.925781 L 38.9375 39.851562 L 39.34375 39.785156 L 39.269531 39.296875 L 39.585938 39.25 L 39.660156 39.738281 L 40.09375 39.675781 L 39.960938 38.746094 L 40.28125 38.703125 L 40.398438 39.632812 L 40.800781 39.585938 L 40.746094 39.097656 L 41.066406 39.0625 L 41.117188 39.554688 L 41.566406 39.507812 L 41.460938 38.574219 L 41.78125 38.535156 L 41.898438 39.46875 C 41.898438 39.46875 42.003906 39.453125 42.113281 39.4375 C 42.222656 39.421875 42.332031 39.40625 42.332031 39.40625 L 42.253906 38.917969 C 42.253906 38.917969 42.335938 38.90625 42.417969 38.890625 C 42.5 38.878906 42.582031 38.863281 42.582031 38.863281 L 42.675781 39.347656 C 42.675781 39.347656 42.703125 39.339844 42.75 39.332031 C 42.792969 39.324219 42.851562 39.3125 42.910156 39.296875 C 42.972656 39.285156 43.03125 39.269531 43.078125 39.261719 C 43.121094 39.25 43.152344 39.242188 43.152344 39.242188 L 42.921875 38.332031 C 42.921875 38.332031 42.9375 38.328125 42.96875 38.320312 C 42.996094 38.3125 43.035156 38.304688 43.070312 38.292969 C 43.109375 38.28125 43.144531 38.273438 43.175781 38.265625 C 43.203125 38.257812 43.222656 38.25 43.222656 38.25 L 43.5 39.144531 C 43.5 39.144531 43.609375 39.109375 43.722656 39.070312 C 43.777344 39.050781 43.835938 39.03125 43.875 39.015625 C 43.898438 39.007812 43.914062 39 43.925781 38.996094 C 43.941406 38.992188 43.949219 38.988281 43.949219 38.988281 L 43.765625 38.53125 C 43.765625 38.53125 43.84375 38.496094 43.925781 38.460938 C 44.003906 38.421875 44.082031 38.386719 44.082031 38.386719 L 44.3125 38.820312 C 44.3125 38.820312 44.34375 38.804688 44.390625 38.777344 C 44.4375 38.75 44.5 38.71875 44.558594 38.675781 C 44.617188 38.640625 44.679688 38.597656 44.722656 38.566406 C 44.765625 38.535156 44.792969 38.511719 44.792969 38.511719 L 44.21875 37.773438 C 44.21875 37.773438 44.234375 37.761719 44.253906 37.742188 C 44.273438 37.726562 44.304688 37.703125 44.332031 37.675781 C 44.386719 37.628906 44.4375 37.578125 44.4375 37.578125 L 45.113281 38.226562 C 45.113281 38.226562 45.136719 38.203125 45.171875 38.164062 C 45.210938 38.125 45.253906 38.074219 45.300781 38.015625 C 45.34375 37.960938 45.386719 37.902344 45.414062 37.859375 C 45.445312 37.816406 45.464844 37.785156 45.464844 37.785156 L 45.046875 37.519531 C 45.046875 37.519531 45.058594 37.5 45.078125 37.472656 C 45.09375 37.441406 45.117188 37.40625 45.136719 37.363281 C 45.160156 37.324219 45.179688 37.285156 45.195312 37.253906 C 45.207031 37.222656 45.214844 37.199219 45.214844 37.199219 L 45.671875 37.394531 C 45.671875 37.394531 45.6875 37.359375 45.707031 37.304688 C 45.726562 37.253906 45.753906 37.179688 45.777344 37.109375 C 45.820312 36.960938 45.847656 36.8125 45.847656 36.8125 L 44.921875 36.644531 C 44.921875 36.644531 44.925781 36.628906 44.929688 36.601562 C 44.933594 36.574219 44.9375 36.539062 44.941406 36.503906 C 44.945312 36.464844 44.945312 36.429688 44.949219 36.402344 C 44.949219 36.375 44.949219 36.355469 44.949219 36.355469 L 45.890625 36.375 C 45.890625 36.375 45.894531 36.234375 45.882812 36.09375 " fill-opacity="1" fill-rule="nonzero"/><g clip-path="url(#4aa7024def)"><path fill="#231f20" d="M 2.78125 50.914062 L 2.386719 51.84375 L 3.882812 52.355469 L 4.132812 51.535156 L 2.78125 50.914062 " fill-opacity="1" fill-rule="nonzero"/></g><g clip-path="url(#770777c6d2)"><path fill="#231f20" d="M 62.574219 50.898438 L 62.976562 51.964844 L 61.308594 52.429688 L 61.160156 51.546875 L 62.574219 50.898438 " fill-opacity="1" fill-rule="nonzero"/></g><path stroke-linecap="butt" transform="matrix(0.748005, 0, 0, 0.748005, 53.523756, 30.636527)" fill="none" stroke-linejoin="miter" d="M 11.112464 30.336148 C 11.00802 31.44326 10.282131 32.143037 9.331686 32.143037 C 8.480464 32.143037 7.561353 31.547704 7.561353 30.022815 L 7.561353 12.878258 L 11.138575 12.878258 L 11.138575 12.209813 L 7.561353 12.209813 L 7.561353 3.849035 L 3.785686 3.849035 L 3.785686 12.209813 L 1.602797 12.209813 L 1.602797 12.878258 L 3.785686 12.878258 L 3.785686 27.80337 C 3.785686 29.161148 3.916241 30.310037 4.323575 31.156037 C 5.054686 32.649593 6.349797 33.318037 8.349908 33.318037 C 10.344797 33.318037 11.707798 32.017704 11.80702 30.336148 Z M 20.449798 12.209813 L 14.496464 12.209813 L 14.496464 12.878258 L 16.684576 12.878258 L 16.684576 32.33626 L 14.496464 32.33626 L 14.496464 32.999482 L 22.836354 32.999482 L 22.836354 32.33626 L 20.449798 32.33626 L 20.449798 15.599036 C 21.436798 13.828702 23.081799 12.622369 24.382132 12.622369 C 24.700688 12.622369 24.925243 12.685036 24.98791 12.721591 C 23.974799 12.846925 23.212354 13.766036 23.212354 14.841814 C 23.212354 16.110814 24.168021 17.061258 25.426576 17.061258 C 26.72691 17.061258 27.677354 16.048147 27.677354 14.71648 C 27.677354 13.134147 26.377021 11.922591 24.606688 11.922591 C 22.956465 11.922591 21.342798 13.07148 20.449798 14.491925 Z M 43.328356 12.209813 L 43.328356 12.878258 L 45.521689 12.878258 L 45.521689 26.153148 C 45.521689 30.216037 43.401467 32.623482 40.450911 32.623482 C 37.505577 32.623482 35.374911 30.216037 35.374911 26.153148 L 35.374911 12.878258 L 37.505577 12.878258 L 37.505577 12.209813 L 29.421577 12.209813 L 29.421577 12.878258 L 31.609688 12.878258 L 31.609688 23.683037 C 31.609688 25.234037 31.865577 26.758926 32.304244 27.902593 C 33.604577 31.098593 36.837133 33.286704 40.450911 33.286704 C 44.064689 33.286704 47.292023 31.098593 48.592356 27.902593 C 49.041467 26.758926 49.286912 25.234037 49.286912 23.683037 L 49.286912 12.878258 L 51.417579 12.878258 L 51.417579 12.209813 Z M 73.021914 23.082481 L 73.021914 21.625481 C 73.021914 17.818481 72.008803 15.886258 70.07658 14.115925 C 68.562136 12.721591 66.248691 11.922591 64.217246 11.922591 C 58.989802 11.922591 55.376023 15.854925 55.376023 21.239036 L 55.376023 23.777037 C 55.376023 26.758926 56.039246 28.722482 57.689468 30.529371 C 59.235246 32.210926 61.590468 33.318037 64.405246 33.318037 C 68.113025 33.318037 70.964358 31.354482 72.677247 27.61537 L 72.071469 27.328148 C 70.269802 31.004593 67.825802 32.649593 64.499246 32.649593 C 62.029135 32.649593 60.472913 31.474593 59.747024 29.641593 C 59.203913 28.278593 59.141246 26.53437 59.141246 24.189592 L 59.141246 23.082481 Z M 69.288025 22.414037 L 59.141246 22.414037 L 59.141246 19.938703 C 59.141246 16.899369 59.653024 15.353592 60.634802 14.236036 C 61.548691 13.191591 62.723691 12.591036 64.217246 12.591036 C 65.830913 12.591036 67.157358 13.316925 67.987691 14.460591 C 68.969469 15.792258 69.288025 17.217925 69.288025 20.194592 Z M 69.288025 22.414037 " stroke="#2b0080" stroke-width="2.377088" stroke-opacity="1" stroke-miterlimit="4"/><path stroke-linecap="butt" transform="matrix(0.748005, 0, 0, 0.748005, 53.523756, 30.636527)" fill="none" stroke-linejoin="miter" d="M 104.334361 12.878258 L 104.334361 12.209813 L 100.026027 12.209813 L 100.026027 12.878258 L 101.702361 12.878258 L 94.354693 28.148037 L 91.210915 21.17637 L 95.237249 12.878258 L 96.924027 12.878258 L 96.924027 12.209813 L 92.542582 12.209813 L 92.542582 12.878258 L 94.448693 12.878258 L 90.834915 20.356481 L 87.445693 12.878258 L 89.665137 12.878258 L 89.665137 12.209813 L 82.275692 12.209813 L 82.275692 12.878258 L 83.513359 12.878258 L 88.834804 24.534259 L 87.095804 28.148037 L 80.15547 12.878258 L 81.581137 12.878258 L 81.581137 12.209813 L 74.60947 12.209813 L 74.60947 12.878258 L 76.228359 12.878258 L 85.482137 33.156149 L 89.216026 25.395926 L 92.767138 33.124815 L 102.595361 12.878258 Z M 123.249251 23.082481 L 123.249251 21.625481 C 123.249251 17.818481 122.23614 15.886258 120.303918 14.115925 C 118.784251 12.721591 116.470806 11.922591 114.444584 11.922591 C 109.217139 11.922591 105.603361 15.854925 105.603361 21.239036 L 105.603361 23.777037 C 105.603361 26.758926 106.266583 28.722482 107.916806 30.529371 C 109.462584 32.210926 111.812584 33.318037 114.632584 33.318037 C 118.33514 33.318037 121.191696 31.354482 122.899362 27.61537 L 122.298807 27.328148 C 120.49714 31.004593 118.05314 32.649593 114.721362 32.649593 C 112.256473 32.649593 110.70025 31.474593 109.974361 29.641593 C 109.43125 28.278593 109.368584 26.53437 109.368584 24.189592 L 109.368584 23.082481 Z M 119.515362 22.414037 L 109.368584 22.414037 L 109.368584 19.938703 C 109.368584 16.899369 109.880361 15.353592 110.862139 14.236036 C 111.776028 13.191591 112.951028 12.591036 114.444584 12.591036 C 116.053029 12.591036 117.384695 13.316925 118.215029 14.460591 C 119.196807 15.792258 119.515362 17.217925 119.515362 20.194592 Z M 132.847697 6.982369 C 132.847697 5.875257 131.93903 4.956146 130.821474 4.956146 C 129.714363 4.956146 128.795252 5.875257 128.795252 6.982369 C 128.795252 8.094702 129.714363 9.008591 130.821474 9.008591 C 131.93903 9.008591 132.847697 8.094702 132.847697 6.982369 Z M 134.978363 32.999482 L 134.978363 32.33626 L 132.847697 32.33626 L 132.847697 12.209813 L 126.894363 12.209813 L 126.894363 12.878258 L 129.082474 12.878258 L 129.082474 32.33626 L 126.894363 32.33626 L 126.894363 32.999482 Z M 153.005476 28.947037 C 152.055032 31.291815 149.966143 32.649593 147.898142 32.649593 C 146.096476 32.649593 144.827475 31.667815 144.164253 30.780037 C 142.895253 29.067148 142.86392 27.234148 142.86392 24.852815 L 142.86392 19.938703 C 142.86392 16.899369 143.375698 15.353592 144.357475 14.236036 C 145.271364 13.191591 146.446364 12.591036 147.93992 12.591036 C 149.548365 12.591036 150.880032 13.316925 151.705143 14.460591 C 152.686921 15.792258 153.005476 17.217925 153.005476 20.194592 Z M 156.775921 21.557592 C 156.775921 18.518258 156.107476 16.54948 154.368476 14.648591 C 152.749587 12.909591 150.284698 11.922591 147.93992 11.922591 C 144.101586 11.922591 140.644475 14.371814 139.568697 17.912481 C 139.187475 19.118814 139.093475 20.100592 139.093475 21.463592 L 139.093475 23.777037 C 139.093475 26.53437 139.855919 28.722482 141.375586 30.430148 C 142.895253 32.143037 145.271364 33.318037 147.746698 33.318037 C 149.997476 33.318037 152.055032 32.049037 153.036809 30.367482 L 153.036809 34.425149 C 153.036809 36.61326 152.942809 37.245149 152.566809 38.169482 C 152.211698 38.989371 151.673809 39.683927 151.010587 40.164371 C 150.211587 40.728371 149.015698 41.07826 147.93992 41.07826 C 145.809253 41.07826 144.03892 40.002482 143.344364 38.263482 C 143.720364 38.576816 144.195586 38.702149 144.644698 38.702149 C 145.87192 38.702149 146.76492 37.850927 146.76492 36.581927 C 146.76492 35.375593 145.77792 34.425149 144.60292 34.425149 C 143.302586 34.425149 142.331253 35.537482 142.331253 36.963149 C 142.331253 39.652594 144.796142 41.710149 148.065253 41.710149 C 151.861809 41.710149 155.475587 38.989371 156.332032 35.568815 C 156.650588 34.299815 156.775921 32.80626 156.775921 30.278704 Z M 183.048923 32.999482 L 183.048923 32.33626 L 180.918256 32.33626 L 180.918256 21.463592 C 180.918256 18.711481 180.161034 16.518147 178.646589 14.81048 C 177.1217 13.102814 174.745589 11.922591 172.270256 11.922591 C 170.019478 11.922591 167.993255 13.191591 167.006255 14.873147 L 167.006255 3.849035 L 161.052921 3.849035 L 161.052921 4.512257 L 163.241033 4.512257 L 163.241033 32.33626 L 161.052921 32.33626 L 161.052921 32.999482 L 169.136922 32.999482 L 169.136922 32.33626 L 167.006255 32.33626 L 167.006255 16.298814 C 167.961922 13.954036 170.056033 12.591036 172.113589 12.591036 C 173.915256 12.591036 175.184256 13.572814 175.8527 14.460591 C 177.1217 16.17348 177.153034 18.011703 177.153034 20.387814 L 177.153034 32.999482 Z M 195.723258 30.336148 C 195.624035 31.44326 194.892924 32.143037 193.94248 32.143037 C 193.091257 32.143037 192.172146 31.547704 192.172146 30.022815 L 192.172146 12.878258 L 195.754591 12.878258 L 195.754591 12.209813 L 192.172146 12.209813 L 192.172146 3.849035 L 188.396479 3.849035 L 188.396479 12.209813 L 186.21359 12.209813 L 186.21359 12.878258 L 188.396479 12.878258 L 188.396479 27.80337 C 188.396479 29.161148 188.527035 30.310037 188.93959 31.156037 C 189.665479 32.649593 190.965813 33.318037 192.960702 33.318037 C 194.955591 33.318037 196.318591 32.017704 196.417813 30.336148 Z M 207.509814 32.999482 L 207.509814 32.33626 L 205.384369 32.33626 L 205.384369 3.849035 L 199.425813 3.849035 L 199.425813 4.512257 L 201.613925 4.512257 L 201.613925 32.33626 L 199.425813 32.33626 L 199.425813 32.999482 Z M 227.411705 21.557592 C 227.411705 18.518258 226.74326 16.54948 225.00426 14.648591 C 223.385371 12.909591 220.910037 11.922591 218.565259 11.922591 C 214.726926 11.922591 211.280259 14.371814 210.204481 17.912481 C 209.823259 19.118814 209.724036 20.100592 209.724036 21.463592 L 209.724036 23.683037 C 209.724036 26.727592 210.387259 28.691148 212.136703 30.592037 C 213.745148 32.33626 216.220481 33.318037 218.565259 33.318037 C 222.403593 33.318037 225.855482 30.879259 226.93126 27.328148 C 227.317705 26.121815 227.411705 25.140037 227.411705 23.777037 Z M 223.636038 25.301926 C 223.636038 28.341259 223.129482 29.897482 222.147704 31.004593 C 221.228593 32.049037 220.058815 32.649593 218.565259 32.649593 C 216.951593 32.649593 215.619926 31.923704 214.800037 30.780037 C 213.818259 29.44837 213.499703 28.022704 213.499703 25.046037 L 213.499703 19.938703 C 213.499703 16.899369 214.001037 15.353592 214.982815 14.236036 C 215.907148 13.191591 217.082148 12.591036 218.565259 12.591036 C 220.184148 12.591036 221.515815 13.316925 222.335704 14.460591 C 223.317482 15.792258 223.636038 17.217925 223.636038 20.194592 Z M 243.537928 16.805369 L 243.537928 11.739813 L 242.874706 11.739813 L 242.874706 14.178591 C 242.107039 12.752925 240.623928 11.922591 238.65515 11.922591 C 235.359928 11.922591 232.63915 14.685147 232.63915 18.105703 C 232.63915 25.740592 243.725928 22.957148 243.725928 28.403926 C 243.725928 30.811371 241.605706 32.649593 238.686483 32.649593 C 235.422594 32.649593 232.884594 30.278704 232.63915 26.952148 L 231.970705 26.952148 L 231.970705 33.318037 L 232.63915 33.318037 L 232.63915 29.829593 C 233.835038 32.049037 236.059705 33.318037 238.65515 33.318037 C 242.55615 33.318037 245.626817 30.336148 245.626817 26.633592 C 245.626817 18.862925 234.790705 21.813481 234.790705 16.366703 C 234.790705 14.267369 236.498372 12.622369 238.780483 12.622369 C 241.125261 12.622369 242.712817 14.204703 242.906039 16.805369 Z M 261.283041 16.805369 L 261.283041 11.739813 L 260.619819 11.739813 L 260.619819 14.178591 C 259.852152 12.752925 258.369041 11.922591 256.400263 11.922591 C 253.10504 11.922591 250.384262 14.685147 250.384262 18.105703 C 250.384262 25.740592 261.471041 22.957148 261.471041 28.403926 C 261.471041 30.811371 259.350818 32.649593 256.431596 32.649593 C 253.167707 32.649593 250.629707 30.278704 250.384262 26.952148 L 249.715818 26.952148 L 249.715818 33.318037 L 250.384262 33.318037 L 250.384262 29.829593 C 251.580151 32.049037 253.804818 33.318037 256.400263 33.318037 C 260.301263 33.318037 263.37193 30.336148 263.37193 26.633592 C 263.37193 18.862925 252.535818 21.813481 252.535818 16.366703 C 252.535818 14.267369 254.243485 12.622369 256.525596 12.622369 C 258.870374 12.622369 260.45793 14.204703 260.651152 16.805369 Z M 274.939153 6.982369 C 274.939153 5.875257 274.01482 4.956146 272.907708 4.956146 C 271.805819 4.956146 270.881486 5.875257 270.881486 6.982369 C 270.881486 8.094702 271.805819 9.008591 272.907708 9.008591 C 274.01482 9.008591 274.939153 8.094702 274.939153 6.982369 Z M 274.939153 12.209813 L 268.761264 12.209813 L 268.761264 12.878258 L 271.168708 12.878258 L 271.168708 36.644593 C 271.168708 38.670816 270.944153 39.501149 270.343597 40.195705 C 269.868375 40.728371 269.29393 40.98426 268.474041 40.98426 C 268.129375 40.98426 267.810819 40.921594 267.55493 40.79626 C 268.662041 40.545594 269.325264 39.71526 269.325264 38.639482 C 269.325264 37.401816 268.406153 36.487927 267.116264 36.487927 C 265.878597 36.487927 264.954263 37.401816 264.954263 38.670816 C 264.954263 40.378483 266.635819 41.647483 268.761264 41.647483 C 273.100931 41.647483 274.939153 38.456705 274.939153 34.299815 Z M 297.373822 21.557592 C 297.373822 18.518258 296.710599 16.54948 294.971599 14.648591 C 293.35271 12.909591 290.877377 11.922591 288.532599 11.922591 C 284.694265 11.922591 281.242376 14.371814 280.166598 17.912481 C 279.790598 19.118814 279.691376 20.100592 279.691376 21.463592 L 279.691376 23.683037 C 279.691376 26.727592 280.354598 28.691148 282.104043 30.592037 C 283.712487 32.33626 286.187821 33.318037 288.532599 33.318037 C 292.370932 33.318037 295.822822 30.879259 296.893377 27.328148 C 297.285044 26.121815 297.373822 25.140037 297.373822 23.777037 Z M 293.598155 25.301926 C 293.598155 28.341259 293.096821 29.897482 292.115043 31.004593 C 291.195932 32.049037 290.026154 32.649593 288.532599 32.649593 C 286.91371 32.649593 285.582043 31.923704 284.762154 30.780037 C 283.780376 29.44837 283.467043 28.022704 283.467043 25.046037 L 283.467043 19.938703 C 283.467043 16.899369 283.968376 15.353592 284.950154 14.236036 C 285.869265 13.191591 287.049487 12.591036 288.532599 12.591036 C 290.151488 12.591036 291.477932 13.316925 292.297821 14.460591 C 293.284821 15.792258 293.598155 17.217925 293.598155 20.194592 Z M 315.082379 12.209813 L 315.082379 12.878258 L 317.275712 12.878258 L 317.275712 26.153148 C 317.275712 30.216037 315.15549 32.623482 312.204934 32.623482 C 309.2596 32.623482 307.128934 30.216037 307.128934 26.153148 L 307.128934 12.878258 L 309.2596 12.878258 L 309.2596 12.209813 L 301.170378 12.209813 L 301.170378 12.878258 L 303.363711 12.878258 L 303.363711 23.683037 C 303.363711 25.234037 303.6196 26.758926 304.058267 27.902593 C 305.3586 31.098593 308.591156 33.286704 312.204934 33.286704 C 315.818712 33.286704 319.046046 31.098593 320.346379 27.902593 C 320.79549 26.758926 321.040935 25.234037 321.040935 23.683037 L 321.040935 12.878258 L 323.166379 12.878258 L 323.166379 12.209813 Z M 332.608158 12.209813 L 326.649602 12.209813 L 326.649602 12.878258 L 328.837713 12.878258 L 328.837713 32.33626 L 326.649602 32.33626 L 326.649602 32.999482 L 334.989491 32.999482 L 334.989491 32.33626 L 332.608158 32.33626 L 332.608158 15.599036 C 333.589936 13.828702 335.240158 12.622369 336.535269 12.622369 C 336.853825 12.622369 337.078381 12.685036 337.141047 12.721591 C 336.127936 12.846925 335.370714 13.766036 335.370714 14.841814 C 335.370714 16.110814 336.321158 17.061258 337.579714 17.061258 C 338.880047 17.061258 339.835714 16.048147 339.835714 14.71648 C 339.835714 13.134147 338.535381 11.922591 336.759825 11.922591 C 335.114825 11.922591 333.495936 13.07148 332.608158 14.491925 Z M 363.570716 32.999482 L 363.570716 32.33626 L 361.440049 32.33626 L 361.440049 21.526259 C 361.440049 19.980481 361.194605 18.455592 360.745494 17.311925 C 359.44516 14.115925 356.217827 11.922591 352.609271 11.922591 C 348.995493 11.922591 345.757715 14.115925 344.462603 17.311925 C 344.018714 18.455592 343.762826 19.980481 343.762826 21.526259 L 343.762826 32.33626 L 341.574714 32.33626 L 341.574714 32.999482 L 349.658715 32.999482 L 349.658715 32.33626 L 347.53327 32.33626 L 347.53327 19.056147 C 347.53327 14.99848 349.658715 12.591036 352.609271 12.591036 C 355.554604 12.591036 357.674827 14.99848 357.674827 19.056147 L 357.674827 32.33626 L 355.554604 32.33626 L 355.554604 32.999482 Z M 385.180273 23.082481 L 385.180273 21.625481 C 385.180273 17.818481 384.167162 15.886258 382.229718 14.115925 C 380.715273 12.721591 378.401828 11.922591 376.375606 11.922591 C 371.142939 11.922591 367.529161 15.854925 367.529161 21.239036 L 367.529161 23.777037 C 367.529161 26.758926 368.197605 28.722482 369.842606 30.529371 C 371.393606 32.210926 373.743606 33.318037 376.558384 33.318037 C 380.266162 33.318037 383.122718 31.354482 384.830385 27.61537 L 384.224607 27.328148 C 382.42294 31.004593 379.97894 32.649593 376.652384 32.649593 C 374.182273 32.649593 372.631272 31.474593 371.900161 29.641593 C 371.362272 28.278593 371.299606 26.53437 371.299606 24.189592 L 371.299606 23.082481 Z M 381.441162 22.414037 L 371.299606 22.414037 L 371.299606 19.938703 C 371.299606 16.899369 371.811383 15.353592 372.793161 14.236036 C 373.70705 13.191591 374.88205 12.591036 376.375606 12.591036 C 377.984051 12.591036 379.315717 13.316925 380.140829 14.460591 C 381.122606 15.792258 381.441162 17.217925 381.441162 20.194592 Z M 388.501607 12.209813 L 388.501607 12.878258 L 390.632274 12.878258 L 390.632274 23.745703 C 390.632274 26.503037 391.389496 28.691148 392.914385 30.398815 C 394.42883 32.111704 396.804941 33.286704 399.280275 33.286704 C 401.531053 33.286704 403.557275 32.017704 404.544275 30.336148 L 404.544275 41.365483 L 410.497609 41.365483 L 410.497609 40.697038 L 408.309498 40.697038 L 408.309498 12.209813 L 402.413608 12.209813 L 402.413608 12.878258 L 404.544275 12.878258 L 404.544275 28.915704 C 403.588608 31.260482 401.499719 32.623482 399.436941 32.623482 C 397.635275 32.623482 396.366274 31.636482 395.69783 30.748704 C 394.42883 29.041037 394.397496 27.197593 394.397496 24.821481 L 394.397496 12.209813 Z M 388.501607 12.209813 " stroke="#2b0080" stroke-width="2.377088" stroke-opacity="1" stroke-miterlimit="4"/><g fill="#8c52ff" fill-opacity="1"><g transform="translate(53.535443, 55.3207)"><g><path d="M 8.296875 -1.992188 C 8.226562 -1.160156 7.679688 -0.640625 6.96875 -0.640625 C 6.328125 -0.640625 5.640625 -1.089844 5.640625 -2.226562 L 5.640625 -15.050781 L 8.320312 -15.050781 L 8.320312 -15.550781 L 5.640625 -15.550781 L 5.640625 -21.808594 L 2.820312 -21.808594 L 2.820312 -15.550781 L 1.183594 -15.550781 L 1.183594 -15.050781 L 2.820312 -15.050781 L 2.820312 -3.886719 C 2.820312 -2.867188 2.914062 -2.015625 3.222656 -1.375 C 3.769531 -0.261719 4.742188 0.238281 6.234375 0.238281 C 7.726562 0.238281 8.746094 -0.734375 8.816406 -1.992188 Z M 8.296875 -1.992188 "/></g></g></g><g fill="#8c52ff" fill-opacity="1"><g transform="translate(63.063813, 55.3207)"><g><path d="M 5.761719 -15.550781 L 1.304688 -15.550781 L 1.304688 -15.050781 L 2.9375 -15.050781 L 2.9375 -0.496094 L 1.304688 -0.496094 L 1.304688 0 L 7.539062 0 L 7.539062 -0.496094 L 5.761719 -0.496094 L 5.761719 -13.011719 C 6.496094 -14.339844 7.726562 -15.242188 8.699219 -15.242188 C 8.9375 -15.242188 9.101562 -15.195312 9.148438 -15.171875 C 8.390625 -15.074219 7.824219 -14.386719 7.824219 -13.582031 C 7.824219 -12.632812 8.535156 -11.921875 9.480469 -11.921875 C 10.453125 -11.921875 11.164062 -12.683594 11.164062 -13.675781 C 11.164062 -14.863281 10.191406 -15.761719 8.867188 -15.761719 C 7.632812 -15.761719 6.425781 -14.910156 5.761719 -13.84375 Z M 5.761719 -15.550781 "/></g></g></g><g fill="#8c52ff" fill-opacity="1"><g transform="translate(74.227646, 55.3207)"><g><path d="M 11.710938 -15.550781 L 11.710938 -15.050781 L 13.34375 -15.050781 L 13.34375 -5.121094 C 13.34375 -2.085938 11.757812 -0.285156 9.554688 -0.285156 C 7.347656 -0.285156 5.761719 -2.085938 5.761719 -5.121094 L 5.761719 -15.050781 L 7.347656 -15.050781 L 7.347656 -15.550781 L 1.304688 -15.550781 L 1.304688 -15.050781 L 2.9375 -15.050781 L 2.9375 -6.96875 C 2.9375 -5.808594 3.128906 -4.667969 3.460938 -3.816406 C 4.433594 -1.421875 6.851562 0.214844 9.554688 0.214844 C 12.253906 0.214844 14.671875 -1.421875 15.644531 -3.816406 C 15.976562 -4.667969 16.167969 -5.808594 16.167969 -6.96875 L 16.167969 -15.050781 L 17.753906 -15.050781 L 17.753906 -15.550781 Z M 11.710938 -15.550781 "/></g></g></g><g fill="#8c52ff" fill-opacity="1"><g transform="translate(93.284386, 55.3207)"><g><path d="M 14.863281 -7.417969 L 14.863281 -8.511719 C 14.863281 -11.355469 14.105469 -12.800781 12.65625 -14.128906 C 11.519531 -15.171875 9.789062 -15.761719 8.273438 -15.761719 C 4.363281 -15.761719 1.660156 -12.824219 1.660156 -8.792969 L 1.660156 -6.898438 C 1.660156 -4.667969 2.15625 -3.199219 3.390625 -1.847656 C 4.550781 -0.59375 6.304688 0.238281 8.414062 0.238281 C 11.1875 0.238281 13.320312 -1.234375 14.601562 -4.03125 L 14.152344 -4.242188 C 12.800781 -1.492188 10.976562 -0.261719 8.484375 -0.261719 C 6.636719 -0.261719 5.476562 -1.136719 4.929688 -2.511719 C 4.527344 -3.53125 4.480469 -4.835938 4.480469 -6.589844 L 4.480469 -7.417969 Z M 12.066406 -7.917969 L 4.480469 -7.917969 L 4.480469 -9.765625 C 4.480469 -12.042969 4.859375 -13.203125 5.59375 -14.03125 C 6.28125 -14.816406 7.160156 -15.265625 8.273438 -15.265625 C 9.480469 -15.265625 10.476562 -14.71875 11.09375 -13.867188 C 11.828125 -12.871094 12.066406 -11.804688 12.066406 -9.578125 Z M 12.066406 -7.917969 "/></g></g></g><g fill="#000000" fill-opacity="1"><g transform="translate(109.331961, 55.3207)"><g><path d="M 22.234375 -15.050781 L 22.234375 -15.550781 L 19.011719 -15.550781 L 19.011719 -15.050781 L 20.265625 -15.050781 L 14.769531 -3.625 L 12.421875 -8.839844 L 15.429688 -15.050781 L 16.6875 -15.050781 L 16.6875 -15.550781 L 13.417969 -15.550781 L 13.417969 -15.050781 L 14.839844 -15.050781 L 12.136719 -9.457031 L 9.601562 -15.050781 L 11.257812 -15.050781 L 11.257812 -15.550781 L 5.738281 -15.550781 L 5.738281 -15.050781 L 6.660156 -15.050781 L 10.644531 -6.328125 L 9.339844 -3.625 L 4.148438 -15.050781 L 5.214844 -15.050781 L 5.214844 -15.550781 L 0 -15.550781 L 0 -15.050781 L 1.207031 -15.050781 L 8.128906 0.117188 L 10.925781 -5.6875 L 13.582031 0.09375 L 20.929688 -15.050781 Z M 22.234375 -15.050781 "/></g></g></g><g fill="#000000" fill-opacity="1"><g transform="translate(130.853753, 55.3207)"><g><path d="M 14.863281 -7.417969 L 14.863281 -8.511719 C 14.863281 -11.355469 14.105469 -12.800781 12.65625 -14.128906 C 11.519531 -15.171875 9.789062 -15.761719 8.273438 -15.761719 C 4.363281 -15.761719 1.660156 -12.824219 1.660156 -8.792969 L 1.660156 -6.898438 C 1.660156 -4.667969 2.15625 -3.199219 3.390625 -1.847656 C 4.550781 -0.59375 6.304688 0.238281 8.414062 0.238281 C 11.1875 0.238281 13.320312 -1.234375 14.601562 -4.03125 L 14.152344 -4.242188 C 12.800781 -1.492188 10.976562 -0.261719 8.484375 -0.261719 C 6.636719 -0.261719 5.476562 -1.136719 4.929688 -2.511719 C 4.527344 -3.53125 4.480469 -4.835938 4.480469 -6.589844 L 4.480469 -7.417969 Z M 12.066406 -7.917969 L 4.480469 -7.917969 L 4.480469 -9.765625 C 4.480469 -12.042969 4.859375 -13.203125 5.59375 -14.03125 C 6.28125 -14.816406 7.160156 -15.265625 8.273438 -15.265625 C 9.480469 -15.265625 10.476562 -14.71875 11.09375 -13.867188 C 11.828125 -12.871094 12.066406 -11.804688 12.066406 -9.578125 Z M 12.066406 -7.917969 "/></g></g></g><g fill="#000000" fill-opacity="1"><g transform="translate(146.900289, 55.3207)"><g><path d="M 5.996094 -19.460938 C 5.996094 -20.289062 5.308594 -20.976562 4.480469 -20.976562 C 3.652344 -20.976562 2.964844 -20.289062 2.964844 -19.460938 C 2.964844 -18.632812 3.652344 -17.945312 4.480469 -17.945312 C 5.308594 -17.945312 5.996094 -18.632812 5.996094 -19.460938 Z M 7.585938 0 L 7.585938 -0.496094 L 5.996094 -0.496094 L 5.996094 -15.550781 L 1.539062 -15.550781 L 1.539062 -15.050781 L 3.175781 -15.050781 L 3.175781 -0.496094 L 1.539062 -0.496094 L 1.539062 0 Z M 7.585938 0 "/></g></g></g><g fill="#000000" fill-opacity="1"><g transform="translate(155.907203, 55.3207)"><g><path d="M 12.066406 -3.035156 C 11.355469 -1.28125 9.789062 -0.261719 8.25 -0.261719 C 6.898438 -0.261719 5.949219 -0.996094 5.453125 -1.660156 C 4.503906 -2.9375 4.480469 -4.3125 4.480469 -6.09375 L 4.480469 -9.765625 C 4.480469 -12.042969 4.859375 -13.203125 5.59375 -14.03125 C 6.28125 -14.816406 7.160156 -15.265625 8.273438 -15.265625 C 9.480469 -15.265625 10.476562 -14.71875 11.09375 -13.867188 C 11.828125 -12.871094 12.066406 -11.804688 12.066406 -9.578125 Z M 14.886719 -8.558594 C 14.886719 -10.832031 14.386719 -12.300781 13.085938 -13.726562 C 11.875 -15.027344 10.027344 -15.761719 8.273438 -15.761719 C 5.40625 -15.761719 2.820312 -13.9375 2.015625 -11.285156 C 1.730469 -10.382812 1.660156 -9.648438 1.660156 -8.628906 L 1.660156 -6.898438 C 1.660156 -4.835938 2.226562 -3.199219 3.367188 -1.921875 C 4.503906 -0.640625 6.28125 0.238281 8.128906 0.238281 C 9.8125 0.238281 11.355469 -0.710938 12.089844 -1.96875 L 12.089844 1.066406 C 12.089844 2.703125 12.019531 3.175781 11.734375 3.863281 C 11.472656 4.480469 11.070312 5 10.570312 5.355469 C 9.980469 5.785156 9.078125 6.042969 8.273438 6.042969 C 6.683594 6.042969 5.355469 5.238281 4.835938 3.933594 C 5.121094 4.171875 5.476562 4.265625 5.808594 4.265625 C 6.730469 4.265625 7.394531 3.625 7.394531 2.679688 C 7.394531 1.777344 6.660156 1.066406 5.785156 1.066406 C 4.8125 1.066406 4.078125 1.894531 4.078125 2.964844 C 4.078125 4.976562 5.925781 6.519531 8.367188 6.519531 C 11.210938 6.519531 13.914062 4.480469 14.554688 1.921875 C 14.792969 0.972656 14.886719 -0.140625 14.886719 -2.039062 Z M 14.886719 -8.558594 "/></g></g></g><g fill="#000000" fill-opacity="1"><g transform="translate(172.451489, 55.3207)"><g><path d="M 17.992188 0 L 17.992188 -0.496094 L 16.402344 -0.496094 L 16.402344 -8.628906 C 16.402344 -10.691406 15.835938 -12.328125 14.695312 -13.605469 C 13.558594 -14.886719 11.78125 -15.761719 9.933594 -15.761719 C 8.25 -15.761719 6.730469 -14.816406 5.996094 -13.558594 L 5.996094 -21.808594 L 1.539062 -21.808594 L 1.539062 -21.308594 L 3.175781 -21.308594 L 3.175781 -0.496094 L 1.539062 -0.496094 L 1.539062 0 L 7.585938 0 L 7.585938 -0.496094 L 5.996094 -0.496094 L 5.996094 -12.492188 C 6.707031 -14.246094 8.273438 -15.265625 9.8125 -15.265625 C 11.164062 -15.265625 12.113281 -14.53125 12.609375 -13.867188 C 13.558594 -12.585938 13.582031 -11.210938 13.582031 -9.433594 L 13.582031 0 Z M 17.992188 0 "/></g></g></g><g fill="#000000" fill-opacity="1"><g transform="translate(191.626748, 55.3207)"><g><path d="M 8.296875 -1.992188 C 8.226562 -1.160156 7.679688 -0.640625 6.96875 -0.640625 C 6.328125 -0.640625 5.640625 -1.089844 5.640625 -2.226562 L 5.640625 -15.050781 L 8.320312 -15.050781 L 8.320312 -15.550781 L 5.640625 -15.550781 L 5.640625 -21.808594 L 2.820312 -21.808594 L 2.820312 -15.550781 L 1.183594 -15.550781 L 1.183594 -15.050781 L 2.820312 -15.050781 L 2.820312 -3.886719 C 2.820312 -2.867188 2.914062 -2.015625 3.222656 -1.375 C 3.769531 -0.261719 4.742188 0.238281 6.234375 0.238281 C 7.726562 0.238281 8.746094 -0.734375 8.816406 -1.992188 Z M 8.296875 -1.992188 "/></g></g></g><g fill="#000000" fill-opacity="1"><g transform="translate(201.155118, 55.3207)"><g><path d="M 7.585938 0 L 7.585938 -0.496094 L 5.996094 -0.496094 L 5.996094 -21.808594 L 1.539062 -21.808594 L 1.539062 -21.308594 L 3.175781 -21.308594 L 3.175781 -0.496094 L 1.539062 -0.496094 L 1.539062 0 Z M 7.585938 0 "/></g></g></g><g fill="#000000" fill-opacity="1"><g transform="translate(208.858399, 55.3207)"><g><path d="M 14.769531 -8.558594 C 14.769531 -10.832031 14.269531 -12.300781 12.964844 -13.726562 C 11.757812 -15.027344 9.910156 -15.761719 8.152344 -15.761719 C 5.285156 -15.761719 2.703125 -13.9375 1.894531 -11.285156 C 1.613281 -10.382812 1.539062 -9.648438 1.539062 -8.628906 L 1.539062 -6.96875 C 1.539062 -4.695312 2.039062 -3.222656 3.34375 -1.800781 C 4.550781 -0.496094 6.398438 0.238281 8.152344 0.238281 C 11.023438 0.238281 13.605469 -1.589844 14.414062 -4.242188 C 14.695312 -5.144531 14.769531 -5.878906 14.769531 -6.898438 Z M 11.945312 -5.761719 C 11.945312 -3.484375 11.566406 -2.324219 10.832031 -1.492188 C 10.144531 -0.710938 9.269531 -0.261719 8.152344 -0.261719 C 6.945312 -0.261719 5.949219 -0.804688 5.332031 -1.660156 C 4.597656 -2.65625 4.363281 -3.722656 4.363281 -5.949219 L 4.363281 -9.765625 C 4.363281 -12.042969 4.742188 -13.203125 5.476562 -14.03125 C 6.164062 -14.816406 7.039062 -15.265625 8.152344 -15.265625 C 9.363281 -15.265625 10.359375 -14.71875 10.976562 -13.867188 C 11.710938 -12.871094 11.945312 -11.804688 11.945312 -9.578125 Z M 11.945312 -5.761719 "/></g></g></g><g fill="#000000" fill-opacity="1"><g transform="translate(225.165658, 55.3207)"><g><path d="M 10.523438 -12.113281 L 10.523438 -15.90625 L 10.027344 -15.90625 L 10.027344 -14.082031 C 9.457031 -15.148438 8.34375 -15.761719 6.875 -15.761719 C 4.410156 -15.761719 2.371094 -13.699219 2.371094 -11.140625 C 2.371094 -5.429688 10.667969 -7.515625 10.667969 -3.4375 C 10.667969 -1.636719 9.078125 -0.261719 6.898438 -0.261719 C 4.457031 -0.261719 2.558594 -2.039062 2.371094 -4.527344 L 1.871094 -4.527344 L 1.871094 0.238281 L 2.371094 0.238281 L 2.371094 -2.371094 C 3.269531 -0.710938 4.929688 0.238281 6.875 0.238281 C 9.789062 0.238281 12.089844 -1.992188 12.089844 -4.765625 C 12.089844 -10.570312 3.980469 -8.367188 3.980469 -12.445312 C 3.980469 -14.007812 5.261719 -15.242188 6.96875 -15.242188 C 8.722656 -15.242188 9.910156 -14.058594 10.050781 -12.113281 Z M 10.523438 -12.113281 "/></g></g></g><g fill="#000000" fill-opacity="1"><g transform="translate(238.439007, 55.3207)"><g><path d="M 10.523438 -12.113281 L 10.523438 -15.90625 L 10.027344 -15.90625 L 10.027344 -14.082031 C 9.457031 -15.148438 8.34375 -15.761719 6.875 -15.761719 C 4.410156 -15.761719 2.371094 -13.699219 2.371094 -11.140625 C 2.371094 -5.429688 10.667969 -7.515625 10.667969 -3.4375 C 10.667969 -1.636719 9.078125 -0.261719 6.898438 -0.261719 C 4.457031 -0.261719 2.558594 -2.039062 2.371094 -4.527344 L 1.871094 -4.527344 L 1.871094 0.238281 L 2.371094 0.238281 L 2.371094 -2.371094 C 3.269531 -0.710938 4.929688 0.238281 6.875 0.238281 C 9.789062 0.238281 12.089844 -1.992188 12.089844 -4.765625 C 12.089844 -10.570312 3.980469 -8.367188 3.980469 -12.445312 C 3.980469 -14.007812 5.261719 -15.242188 6.96875 -15.242188 C 8.722656 -15.242188 9.910156 -14.058594 10.050781 -12.113281 Z M 10.523438 -12.113281 "/></g></g></g><g fill="#000000" fill-opacity="1"><g transform="translate(251.712357, 55.3207)"><g><path d="M 7.46875 -19.460938 C 7.46875 -20.289062 6.78125 -20.976562 5.949219 -20.976562 C 5.121094 -20.976562 4.433594 -20.289062 4.433594 -19.460938 C 4.433594 -18.632812 5.121094 -17.945312 5.949219 -17.945312 C 6.78125 -17.945312 7.46875 -18.632812 7.46875 -19.460938 Z M 7.46875 -15.550781 L 2.84375 -15.550781 L 2.84375 -15.050781 L 4.644531 -15.050781 L 4.644531 2.726562 C 4.644531 4.242188 4.480469 4.859375 4.03125 5.382812 C 3.675781 5.785156 3.246094 5.972656 2.632812 5.972656 C 2.371094 5.972656 2.132812 5.925781 1.945312 5.832031 C 2.773438 5.640625 3.269531 5.023438 3.269531 4.21875 C 3.269531 3.292969 2.582031 2.609375 1.613281 2.609375 C 0.6875 2.609375 0 3.292969 0 4.242188 C 0 5.523438 1.257812 6.472656 2.84375 6.472656 C 6.09375 6.472656 7.46875 4.078125 7.46875 0.972656 Z M 7.46875 -15.550781 "/></g></g></g><g fill="#000000" fill-opacity="1"><g transform="translate(261.193326, 55.3207)"><g><path d="M 14.769531 -8.558594 C 14.769531 -10.832031 14.269531 -12.300781 12.964844 -13.726562 C 11.757812 -15.027344 9.910156 -15.761719 8.152344 -15.761719 C 5.285156 -15.761719 2.703125 -13.9375 1.894531 -11.285156 C 1.613281 -10.382812 1.539062 -9.648438 1.539062 -8.628906 L 1.539062 -6.96875 C 1.539062 -4.695312 2.039062 -3.222656 3.34375 -1.800781 C 4.550781 -0.496094 6.398438 0.238281 8.152344 0.238281 C 11.023438 0.238281 13.605469 -1.589844 14.414062 -4.242188 C 14.695312 -5.144531 14.769531 -5.878906 14.769531 -6.898438 Z M 11.945312 -5.761719 C 11.945312 -3.484375 11.566406 -2.324219 10.832031 -1.492188 C 10.144531 -0.710938 9.269531 -0.261719 8.152344 -0.261719 C 6.945312 -0.261719 5.949219 -0.804688 5.332031 -1.660156 C 4.597656 -2.65625 4.363281 -3.722656 4.363281 -5.949219 L 4.363281 -9.765625 C 4.363281 -12.042969 4.742188 -13.203125 5.476562 -14.03125 C 6.164062 -14.816406 7.039062 -15.265625 8.152344 -15.265625 C 9.363281 -15.265625 10.359375 -14.71875 10.976562 -13.867188 C 11.710938 -12.871094 11.945312 -11.804688 11.945312 -9.578125 Z M 11.945312 -5.761719 "/></g></g></g><g fill="#000000" fill-opacity="1"><g transform="translate(277.500585, 55.3207)"><g><path d="M 11.710938 -15.550781 L 11.710938 -15.050781 L 13.34375 -15.050781 L 13.34375 -5.121094 C 13.34375 -2.085938 11.757812 -0.285156 9.554688 -0.285156 C 7.347656 -0.285156 5.761719 -2.085938 5.761719 -5.121094 L 5.761719 -15.050781 L 7.347656 -15.050781 L 7.347656 -15.550781 L 1.304688 -15.550781 L 1.304688 -15.050781 L 2.9375 -15.050781 L 2.9375 -6.96875 C 2.9375 -5.808594 3.128906 -4.667969 3.460938 -3.816406 C 4.433594 -1.421875 6.851562 0.214844 9.554688 0.214844 C 12.253906 0.214844 14.671875 -1.421875 15.644531 -3.816406 C 15.976562 -4.667969 16.167969 -5.808594 16.167969 -6.96875 L 16.167969 -15.050781 L 17.753906 -15.050781 L 17.753906 -15.550781 Z M 11.710938 -15.550781 "/></g></g></g><g fill="#000000" fill-opacity="1"><g transform="translate(296.557324, 55.3207)"><g><path d="M 5.761719 -15.550781 L 1.304688 -15.550781 L 1.304688 -15.050781 L 2.9375 -15.050781 L 2.9375 -0.496094 L 1.304688 -0.496094 L 1.304688 0 L 7.539062 0 L 7.539062 -0.496094 L 5.761719 -0.496094 L 5.761719 -13.011719 C 6.496094 -14.339844 7.726562 -15.242188 8.699219 -15.242188 C 8.9375 -15.242188 9.101562 -15.195312 9.148438 -15.171875 C 8.390625 -15.074219 7.824219 -14.386719 7.824219 -13.582031 C 7.824219 -12.632812 8.535156 -11.921875 9.480469 -11.921875 C 10.453125 -11.921875 11.164062 -12.683594 11.164062 -13.675781 C 11.164062 -14.863281 10.191406 -15.761719 8.867188 -15.761719 C 7.632812 -15.761719 6.425781 -14.910156 5.761719 -13.84375 Z M 5.761719 -15.550781 "/></g></g></g><g fill="#000000" fill-opacity="1"><g transform="translate(307.721157, 55.3207)"><g><path d="M 17.753906 0 L 17.753906 -0.496094 L 16.167969 -0.496094 L 16.167969 -8.582031 C 16.167969 -9.742188 15.976562 -10.878906 15.644531 -11.734375 C 14.671875 -14.128906 12.253906 -15.761719 9.554688 -15.761719 C 6.851562 -15.761719 4.433594 -14.128906 3.460938 -11.734375 C 3.128906 -10.878906 2.9375 -9.742188 2.9375 -8.582031 L 2.9375 -0.496094 L 1.304688 -0.496094 L 1.304688 0 L 7.347656 0 L 7.347656 -0.496094 L 5.761719 -0.496094 L 5.761719 -10.429688 C 5.761719 -13.464844 7.347656 -15.265625 9.554688 -15.265625 C 11.757812 -15.265625 13.34375 -13.464844 13.34375 -10.429688 L 13.34375 -0.496094 L 11.757812 -0.496094 L 11.757812 0 Z M 17.753906 0 "/></g></g></g><g fill="#000000" fill-opacity="1"><g transform="translate(326.777897, 55.3207)"><g><path d="M 14.863281 -7.417969 L 14.863281 -8.511719 C 14.863281 -11.355469 14.105469 -12.800781 12.65625 -14.128906 C 11.519531 -15.171875 9.789062 -15.761719 8.273438 -15.761719 C 4.363281 -15.761719 1.660156 -12.824219 1.660156 -8.792969 L 1.660156 -6.898438 C 1.660156 -4.667969 2.15625 -3.199219 3.390625 -1.847656 C 4.550781 -0.59375 6.304688 0.238281 8.414062 0.238281 C 11.1875 0.238281 13.320312 -1.234375 14.601562 -4.03125 L 14.152344 -4.242188 C 12.800781 -1.492188 10.976562 -0.261719 8.484375 -0.261719 C 6.636719 -0.261719 5.476562 -1.136719 4.929688 -2.511719 C 4.527344 -3.53125 4.480469 -4.835938 4.480469 -6.589844 L 4.480469 -7.417969 Z M 12.066406 -7.917969 L 4.480469 -7.917969 L 4.480469 -9.765625 C 4.480469 -12.042969 4.859375 -13.203125 5.59375 -14.03125 C 6.28125 -14.816406 7.160156 -15.265625 8.273438 -15.265625 C 9.480469 -15.265625 10.476562 -14.71875 11.09375 -13.867188 C 11.828125 -12.871094 12.066406 -11.804688 12.066406 -9.578125 Z M 12.066406 -7.917969 "/></g></g></g><g fill="#000000" fill-opacity="1"><g transform="translate(342.824422, 55.3207)"><g><path d="M 1.304688 -15.550781 L 1.304688 -15.050781 L 2.890625 -15.050781 L 2.890625 -6.921875 C 2.890625 -4.859375 3.460938 -3.222656 4.597656 -1.945312 C 5.738281 -0.664062 7.515625 0.214844 9.363281 0.214844 C 11.046875 0.214844 12.5625 -0.734375 13.296875 -1.992188 L 13.296875 6.257812 L 17.753906 6.257812 L 17.753906 5.761719 L 16.117188 5.761719 L 16.117188 -15.550781 L 11.710938 -15.550781 L 11.710938 -15.050781 L 13.296875 -15.050781 L 13.296875 -3.058594 C 12.585938 -1.304688 11.023438 -0.285156 9.480469 -0.285156 C 8.128906 -0.285156 7.183594 -1.019531 6.683594 -1.683594 C 5.738281 -2.964844 5.710938 -4.335938 5.710938 -6.117188 L 5.710938 -15.550781 Z M 1.304688 -15.550781 "/></g></g></g></svg>